<svg width="80" height="80" viewBox="0 0 80 80" fill="none" xmlns="http://www.w3.org/2000/svg">
<path d="M44.5713 54.6326L64.9126 26.1538C65.6502 25.119 66.7542 24.4039 68.0001 24.1538L70.0001 23.7538C71.451 23.4634 72.7835 22.7502 73.8301 21.7042C74.8766 20.6581 75.5903 19.3258 75.8813 17.8751C76.1236 16.6642 76.0631 15.4122 75.7053 14.2303C75.3475 13.0485 74.7033 11.9732 73.8301 11.1001L68.9001 6.17007C68.0263 5.29793 66.9508 4.65497 65.769 4.29823C64.5871 3.94149 63.3355 3.88201 62.1251 4.12507C60.6745 4.41504 59.342 5.12752 58.2953 6.17289C57.2486 7.21826 56.5344 8.54982 56.2426 10.0001L55.8426 12.0001C55.5925 13.246 54.8774 14.35 53.8426 15.0876L25.3676 35.4288C23.7409 36.591 22.3868 38.0936 21.3995 39.8321C20.4122 41.5705 19.8154 43.5031 19.6505 45.4955C19.4857 47.488 19.7567 49.4924 20.4448 51.3695C21.1329 53.2466 22.2216 54.9513 23.6351 56.3651C25.0489 57.7786 26.7536 58.8673 28.6307 59.5554C30.5078 60.2435 32.5122 60.5145 34.5046 60.3496C36.4971 60.1847 38.4297 59.5879 40.1681 58.6006C41.9065 57.6133 43.4091 56.2593 44.5713 54.6326Z" fill="#778084"/>
<path d="M64.3675 68.7563L61.25 71.25H18.75L15.6325 68.7563C12.7049 66.4141 10.3416 63.4436 8.71747 60.0644C7.09335 56.6853 6.25006 52.9842 6.25 49.235V43.75H73.75V49.235C73.7499 52.9842 72.9066 56.6853 71.2825 60.0644C69.6584 63.4436 67.2951 66.4141 64.3675 68.7563Z" fill="#8E969B"/>
<path d="M18.75 71.25H61.25V73.75C61.25 74.413 60.9866 75.0489 60.5178 75.5178C60.0489 75.9866 59.413 76.25 58.75 76.25H21.25C20.587 76.25 19.9511 75.9866 19.4822 75.5178C19.0134 75.0489 18.75 74.413 18.75 73.75V71.25Z" fill="#778084"/>
<path d="M73.75 38.75H6.25C4.86929 38.75 3.75 39.8693 3.75 41.25C3.75 42.6307 4.86929 43.75 6.25 43.75H73.75C75.1307 43.75 76.25 42.6307 76.25 41.25C76.25 39.8693 75.1307 38.75 73.75 38.75Z" fill="#8E969B"/>
<path d="M56.25 51.25C54.3004 52.8098 52.7264 54.788 51.6445 57.0382C50.5627 59.2885 50.0006 61.7532 50 64.25V76.25H62.5V64.25C62.4994 61.7532 61.9373 59.2885 60.8555 57.0382C59.7736 54.788 58.1996 52.8098 56.25 51.25Z" fill="#62A94B"/>
<path d="M76.25 63.75H68.75C65.4348 63.75 62.2554 65.067 59.9112 67.4112C57.567 69.7554 56.25 72.9348 56.25 76.25H63.75C67.0652 76.25 70.2446 74.933 72.5888 72.5888C74.933 70.2446 76.25 67.0652 76.25 63.75Z" fill="#6DBC53"/>
<path d="M36.25 63.75H43.75C47.0652 63.75 50.2446 65.067 52.5888 67.4112C54.933 69.7554 56.25 72.9348 56.25 76.25H48.75C45.4348 76.25 42.2554 74.933 39.9112 72.5888C37.567 70.2446 36.25 67.0652 36.25 63.75Z" fill="#6DBC53"/>
<path d="M76.2501 62.5H68.7501C67.0225 62.5017 65.3109 62.8313 63.7063 63.4713C63.6051 60.9215 62.9566 58.4233 61.8049 56.1462C60.6532 53.8691 59.0252 51.8663 57.0313 50.2738C56.8096 50.0963 56.5341 49.9996 56.2501 49.9996C55.966 49.9996 55.6905 50.0963 55.4688 50.2738C53.4749 51.8663 51.8469 53.8691 50.6952 56.1462C49.5435 58.4233 48.895 60.9215 48.7938 63.4713C47.1892 62.8313 45.4776 62.5017 43.7501 62.5H36.2501C35.9185 62.5 35.6006 62.6317 35.3662 62.8661C35.1318 63.1006 35.0001 63.4185 35.0001 63.75C35.0025 65.9595 35.5378 68.1357 36.5605 70.0942C37.5833 72.0526 39.0633 73.7355 40.8751 75H21.2501C20.9185 75 20.6006 74.8683 20.3662 74.6339C20.1318 74.3995 20.0001 74.0816 20.0001 73.75V72.5H33.7501C34.0816 72.5 34.3995 72.3683 34.6339 72.1339C34.8684 71.8995 35.0001 71.5816 35.0001 71.25C35.0001 70.9185 34.8684 70.6006 34.6339 70.3661C34.3995 70.1317 34.0816 70 33.7501 70H19.1888L16.4138 67.78C13.626 65.5609 11.3762 62.7401 9.83257 59.5286C8.28896 56.3172 7.49157 52.7982 7.50006 49.235V45H72.5001V49.235C72.5033 52.3362 71.8955 55.4076 70.7113 58.2738C70.585 58.5804 70.5857 58.9247 70.7132 59.2309C70.8407 59.537 71.0846 59.78 71.3913 59.9063C71.698 60.0326 72.0422 60.0319 72.3484 59.9044C72.6545 59.7769 72.8975 59.5329 73.0238 59.2263C74.3319 56.0578 75.0034 52.6629 75.0001 49.235V44.77C75.8334 44.4765 76.536 43.8975 76.9834 43.1356C77.4307 42.3737 77.594 41.4781 77.4443 40.6073C77.2946 39.7366 76.8415 38.9469 76.1654 38.3782C75.4892 37.8094 74.6336 37.4984 73.7501 37.5H58.3438L65.9288 26.875C66.4825 26.0985 67.3112 25.5622 68.2463 25.375L70.2463 24.9763C71.7976 24.6643 73.2352 23.9376 74.4061 22.8734C75.5771 21.8091 76.4376 20.4473 76.896 18.9329C77.3544 17.4184 77.3935 15.808 77.0092 14.2731C76.625 12.7381 75.8317 11.3361 74.7138 10.2163L69.7838 5.28629C68.664 4.16669 67.2613 3.37197 65.7253 2.98685C64.1894 2.60173 62.5777 2.64064 61.0621 3.09943C59.5465 3.55823 58.1838 4.41971 57.1193 5.59204C56.0548 6.76436 55.3284 8.20359 55.0176 9.75629L54.6163 11.7563C54.4301 12.6911 53.8935 13.5194 53.1163 14.0713L24.6401 34.4125C23.46 35.2546 22.4075 36.2625 21.5151 37.405C21.4926 37.435 21.4876 37.47 21.4676 37.5H6.25006C5.36652 37.4984 4.51091 37.8094 3.83475 38.3782C3.1586 38.9469 2.70554 39.7366 2.55582 40.6073C2.4061 41.4781 2.56939 42.3737 3.01676 43.1356C3.46412 43.8975 4.1667 44.4765 5.00006 44.77V49.235C4.9906 53.1736 5.8718 57.0634 7.57773 60.6133C9.28367 64.1633 11.7702 67.2816 14.8513 69.735L17.5001 71.8513V73.75C17.5001 74.7446 17.8951 75.6984 18.5984 76.4017C19.3017 77.1049 20.2555 77.5 21.2501 77.5H63.7501C67.3955 77.4957 70.8903 76.0457 73.468 73.468C76.0457 70.8903 77.4958 67.3954 77.5001 63.75C77.5001 63.4185 77.3684 63.1006 77.1339 62.8661C76.8995 62.6317 76.5816 62.5 76.2501 62.5ZM26.0938 36.4463L54.5738 16.105C55.8685 15.1839 56.7628 13.8033 57.0738 12.245L57.4751 10.245C57.697 9.13586 58.2157 8.1077 58.9761 7.27018C59.7364 6.43267 60.7097 5.81719 61.7923 5.48938C62.8749 5.16157 64.0262 5.13371 65.1234 5.40878C66.2206 5.68384 67.2226 6.25152 68.0226 7.05129L72.9513 11.9813C73.7521 12.7816 74.3205 13.7844 74.5958 14.8827C74.871 15.9809 74.8428 17.1333 74.5141 18.2167C74.1854 19.3001 73.5685 20.2739 72.7295 21.034C71.8904 21.7942 70.8606 22.3121 69.7501 22.5325L67.7501 22.9313C66.1915 23.2415 64.8105 24.1359 63.8901 25.4313L55.2726 37.5H24.8213C25.2223 37.1217 25.6473 36.7697 26.0938 36.4463ZM6.25006 40H73.7501C74.0816 40 74.3995 40.1317 74.6339 40.3661C74.8684 40.6006 75.0001 40.9185 75.0001 41.25C75.0001 41.5816 74.8684 41.8995 74.6339 42.1339C74.3995 42.3683 74.0816 42.5 73.7501 42.5H6.25006C5.91854 42.5 5.60059 42.3683 5.36617 42.1339C5.13175 41.8995 5.00006 41.5816 5.00006 41.25C5.00006 40.9185 5.13175 40.6006 5.36617 40.3661C5.60059 40.1317 5.91854 40 6.25006 40ZM72.5701 65L57.7501 73.89C58.2928 71.3749 59.68 69.1212 61.6813 67.5039C63.6825 65.8866 66.177 65.003 68.7501 65H72.5701ZM61.2501 64.25V64.7363C59.7821 65.6967 58.5097 66.9268 57.5001 68.3613V54.1888C59.9233 56.9801 61.2552 60.5536 61.2501 64.25ZM51.2501 64.25C51.244 60.5523 52.576 56.9773 55.0001 54.185V68.375C53.9904 66.9405 52.718 65.7105 51.2501 64.75V64.25ZM54.7501 73.8863L39.9301 65H43.7501C46.3231 65.003 48.8176 65.8866 50.8189 67.5039C52.8201 69.1212 54.2074 71.3749 54.7501 73.89V73.8863ZM37.9038 66.7L51.7376 75H48.7501C46.2826 74.9957 43.8848 74.1812 41.9253 72.6817C39.9657 71.1822 38.5528 69.0806 37.9038 66.7ZM63.7501 75H60.7626L74.5963 66.7C73.9473 69.0806 72.5344 71.1822 70.5748 72.6817C68.6153 74.1812 66.2175 74.9957 63.7501 75Z" fill="black"/>
</svg>
