<svg width="80" height="80" viewBox="0 0 80 80" fill="none" xmlns="http://www.w3.org/2000/svg">
<path d="M33.9125 4.625L34.925 17.8375C33.525 18.125 32.1875 18.6125 30.925 19.2625C30.5375 19.4625 30.15 19.6875 29.775 19.925L27.5375 6.5C27.5125 6.3375 27.5 6.1625 27.5 5.9875C27.5 4.65 28.3625 3.4625 29.625 3.0375L30.9 2.6125C31.125 2.5375 31.375 2.5 31.625 2.5C32.825 2.5 33.825 3.425 33.9125 4.625Z" fill="#F0D0B4"/>
<path d="M45 6.9125C45 7.3 44.9375 7.6875 44.8125 8.05L41.5375 17.875C40.4375 17.625 39.3 17.5 38.1375 17.5C37.4875 17.5 36.85 17.5375 36.225 17.6125L38.45 4.3125C38.625 3.2625 39.525 2.5 40.5875 2.5C41.025 2.5 41.4375 2.625 41.8 2.8625L43.4 3.9375C44.4 4.6 45 5.725 45 6.9125Z" fill="#F0D0B4"/>
<path d="M53.75 12.825C53.75 13.425 53.5375 14 53.1625 14.4625L47.825 20.8625C46.525 19.8375 45.0625 19.0125 43.475 18.45V18.4375L47.825 11.4875C48.4 10.5625 49.4125 10 50.5 10C51 10 51.475 10.1125 51.9125 10.3375L52.3375 10.55C53.2 10.975 53.75 11.8625 53.75 12.825Z" fill="#F0D0B4"/>
<path d="M25.9125 23.4C25.7125 23.65 25.525 23.9 25.3375 24.1625C24.825 24.9 24.35 25.65 23.9375 26.4375C23.5625 27.1375 23.225 27.85 22.925 28.5875L18.825 27.7625C17.9375 27.5875 17.05 27.5 16.15 27.5H15.9875C14.7625 27.5 13.575 27.675 12.45 27.9875C12.2 25.9875 10.975 24.2375 9.15 23.325L4 20.75C3.075 20.2875 2.5 19.35 2.5 18.325C2.5 17.7875 2.6625 17.2625 2.95 16.8125L4.15 15.0375C4.675 14.225 5.575 13.75 6.5375 13.75C7.1625 13.75 7.775 13.95 8.2625 14.325L11.525 16.775C11.875 17.025 12.2875 17.1625 12.7 17.1625C13.0125 17.1625 13.3125 17.0875 13.5875 16.95C14.4125 16.5375 14.8375 15.6125 14.6125 14.7125L12.5875 6.575C12.525 6.3625 12.5 6.1375 12.5 5.9125C12.5 4.6375 13.3625 3.5375 14.6 3.225L17.2125 2.575C17.4 2.525 17.6 2.5 17.7875 2.5C19.0375 2.5 20.075 3.4625 20.175 4.7L21.1125 16.9C21.2 18.1 21.7125 19.2125 22.5625 20.0625L25.9 23.4H25.9125Z" fill="#DFB28B"/>
<path d="M18.825 27.7625L22.925 28.5875C22.7 29.1625 22.4875 29.7375 22.3 30.325C21.6 32.5125 21.25 34.8 21.25 37.125V37.8C21.25 42.525 17.525 46.25 12.925 46.25C11.1875 46.25 9.4875 45.9 7.9125 45.25C6.3375 44.6 4.9 43.65 3.6625 42.4125L2.5 41.25C2.5 34.9875 6.725 29.6 12.45 27.9875C13.575 27.675 14.7625 27.5 15.9875 27.5H16.15C17.05 27.5 17.9375 27.5875 18.825 27.7625Z" fill="#FC6E51"/>
<path d="M47.825 20.8625C48.9125 21.725 49.875 22.725 50.7125 23.8375L47.2125 24.425C44.9375 24.8 42.8 25.75 41.0125 27.2C38.7375 29.0125 35.9125 30 33.0125 30H32.8C29.5 30 26.325 28.725 23.9375 26.4375C24.35 25.65 24.825 24.9 25.3375 24.1625C25.525 23.9 25.7125 23.65 25.9125 23.4C27 22.025 28.3125 20.85 29.775 19.925C30.15 19.6875 30.5375 19.4625 30.925 19.2625C32.1875 18.6125 33.525 18.125 34.925 17.8375C35.35 17.75 35.7875 17.675 36.225 17.6125C36.85 17.5375 37.4875 17.5 38.1375 17.5C39.3 17.5 40.4375 17.625 41.5375 17.875C42.2 18.025 42.85 18.2125 43.475 18.45C45.0625 19.0125 46.525 19.8375 47.825 20.8625Z" fill="#FC6E51"/>
<path d="M22.925 28.5875C23.225 27.85 23.5625 27.1375 23.9375 26.4375C26.325 28.725 29.5 30 32.8 30H33.0125C35.9125 30 38.7375 29.0125 41.0125 27.2C42.8 25.75 44.9375 24.8 47.2125 24.425L50.7125 23.8375C52.1125 25.725 53.1 27.9625 53.525 30.4125L55 38.75L57.5 51.25C55.0625 60.9875 49.55 69.6875 41.7875 76.0375L41.1625 76.55C40.4125 77.1625 39.4625 77.5 38.5 77.5C37.8375 77.5 37.1875 77.375 36.575 77.1375C35.325 76.6375 32.95 75.675 30.3125 74.625C26.5 73.1 22.875 71.15 19.5125 68.8375C16.1375 66.525 13.025 63.825 10.225 60.8125C5.2875 55.5 2.5 48.6 2.5 41.35C2.5 41.3125 2.5 41.2875 2.5 41.25L3.6625 42.4125C4.9 43.65 6.3375 44.6 7.9125 45.25C9.4875 45.9 11.1875 46.25 12.925 46.25C17.525 46.25 21.25 42.525 21.25 37.8V37.125C21.25 34.8 21.6 32.5125 22.3 30.325C22.4875 29.7375 22.7 29.1625 22.925 28.5875Z" fill="#FF826E"/>
<path d="M32.5 51.25C35.2614 51.25 37.5 49.0114 37.5 46.25C37.5 43.4886 35.2614 41.25 32.5 41.25C29.7386 41.25 27.5 43.4886 27.5 46.25C27.5 49.0114 29.7386 51.25 32.5 51.25Z" fill="#B4DD7F"/>
<path d="M61.9825 45L58.2675 48.715L56.2275 38.5138L54.76 30.1962C54.095 26.4287 52.2112 23.155 49.5675 20.7212L54.1187 15.26C54.6875 14.5775 55 13.7137 55 12.8263C55 11.3775 54.195 10.075 52.8987 9.42625L52.4775 9.21625C51.8687 8.91125 51.1862 8.75 50.5037 8.75C48.9725 8.75 47.5737 9.525 46.7612 10.8238L43.4387 16.14L46.0037 8.44625C46.1675 7.95125 46.25 7.4375 46.25 6.91875C46.25 5.29875 45.445 3.795 44.0975 2.89625L42.4912 1.825C41.9275 1.44875 41.27 1.25 40.5912 1.25C38.91 1.25 37.49 2.4525 37.2137 4.11125L35.7862 12.6787L35.1587 4.525C35.0175 2.68875 33.4637 1.25 31.6225 1.25C31.2387 1.25 30.8625 1.31125 30.5012 1.4325L29.2325 1.855C27.4487 2.44875 26.25 4.1125 26.25 5.9925C26.25 6.2325 26.27 6.4725 26.3087 6.71L28.415 19.3488C27.49 20 26.6325 20.75 25.85 21.5837L23.4412 19.175C22.8087 18.5425 22.4225 17.7025 22.3537 16.8113L21.415 4.605C21.2712 2.72375 19.68 1.25 17.7937 1.25C17.495 1.25 17.1975 1.28625 16.9125 1.35875L14.2925 2.01375C12.5 2.46125 11.25 4.0625 11.25 5.91C11.25 6.24 11.29 6.5675 11.37 6.88375L13.405 15.0212C13.4875 15.35 13.3325 15.6862 13.0287 15.8375C12.785 15.96 12.4975 15.9338 12.2775 15.77L9.01749 13.325C8.30749 12.7925 7.42749 12.5 6.53999 12.5C5.15749 12.5 3.87249 13.1875 3.10499 14.3387L1.91499 16.1238C1.47999 16.7762 1.24999 17.5375 1.24999 18.3225C1.24999 19.8337 2.08999 21.1925 3.44124 21.8688L8.58624 24.4412C9.72124 25.0087 10.5637 25.9912 10.9725 27.1625C5.31249 29.2562 1.24999 34.7712 1.24999 41.245C1.21999 48.7862 4.08124 56.04 9.30749 61.6687C14.9912 67.79 22.0962 72.6712 29.8525 75.7825L36.1162 78.2937C36.875 78.5962 37.675 78.75 38.495 78.75C39.7525 78.75 40.9825 78.31 41.955 77.515L42.575 77.01C50.4062 70.6012 56.09 61.695 58.6187 51.9L63.0175 47.5H78.75V45H61.9825ZM48.8812 12.15C49.3887 11.3363 50.5025 11.0237 51.3587 11.4525L51.7812 11.6638C52.225 11.885 52.5 12.33 52.5 12.8263C52.5 13.13 52.3937 13.425 52.1987 13.6588L47.6125 19.1625C46.8837 18.6688 46.1212 18.2237 45.32 17.8475L48.8812 12.15ZM39.68 4.5225C39.7837 3.895 40.575 3.55375 41.1037 3.905L42.71 4.97625C43.3612 5.41 43.75 6.13625 43.75 6.91875C43.75 7.17 43.71 7.41875 43.63 7.65625L40.6962 16.4575C39.8587 16.33 39.0075 16.25 38.1375 16.25C37.9975 16.25 37.8612 16.2725 37.7212 16.275L39.68 4.5225ZM28.775 6.3C28.7587 6.1975 28.75 6.095 28.75 5.9925C28.75 5.19 29.2612 4.48125 30.0237 4.22625L31.2937 3.8025C31.9125 3.6 32.6175 4.0625 32.6675 4.71625L33.6037 16.895C32.61 17.1725 31.6462 17.5375 30.7237 17.9888L28.775 6.3ZM38.1375 18.75C42.085 18.75 45.7012 20.345 48.3212 22.9713L47.01 23.19C44.5337 23.6025 42.1887 24.6488 40.2262 26.2188C38.185 27.8512 35.6225 28.75 33.0087 28.75H32.8025C30.1287 28.75 27.5837 27.835 25.53 26.1663C25.79 25.7313 26.0637 25.3025 26.3562 24.885C29.045 21.0425 33.4487 18.75 38.1375 18.75ZM9.70499 22.205L4.55874 19.6325C4.05999 19.3825 3.74999 18.88 3.74999 18.3225C3.74999 18.0325 3.83499 17.7513 3.99624 17.51L5.18624 15.7263C5.68249 14.98 6.80124 14.7912 7.51874 15.3263L10.7775 17.7712C11.76 18.5088 13.05 18.625 14.1475 18.0763C15.5062 17.3962 16.1987 15.8925 15.8312 14.4175L13.7962 6.27875C13.765 6.1575 13.75 6.03375 13.75 5.91C13.75 5.2125 14.2212 4.60875 14.8975 4.44L17.5212 3.785C18.1675 3.6175 18.8712 4.11875 18.9225 4.7975L19.8612 17.0037C19.975 18.49 20.6187 19.89 21.6737 20.9437L24.2587 23.5287C23.455 24.6863 22.7725 25.905 22.1912 27.165L19.0675 26.54C18.11 26.3475 17.1275 26.25 16.1487 26.25H15.985C15.095 26.25 14.2287 26.3438 13.3812 26.4987C12.7837 24.6487 11.48 23.0925 9.70499 22.205ZM15.985 28.75H16.1487C16.9625 28.75 17.78 28.8312 18.5775 28.99L21.25 29.525C20.4325 31.9538 20 34.5088 20 37.1213V37.7988C20 41.8375 16.8912 45 12.9212 45C9.75999 45 6.78624 43.7688 4.54999 41.5338L3.77499 40.7562C4.03124 34.0938 9.40249 28.75 15.985 28.75ZM40.9925 75.0737L40.3725 75.58C39.455 76.3288 38.1337 76.4062 37.045 75.9713L30.7837 73.4625C23.3675 70.4875 16.575 65.82 11.14 59.9675C7.06374 55.5788 4.57624 50.1138 3.93374 44.3288C6.47374 46.38 9.61124 47.5 12.9212 47.5C18.2037 47.5 22.5 43.1488 22.5 37.7988V37.1213C22.5 34.09 23.1475 31.1438 24.3662 28.4225C26.79 30.2488 29.7262 31.25 32.8037 31.25H33.01C36.1887 31.25 39.3062 30.1562 41.7887 28.17C43.4175 26.8675 45.365 25.9975 47.4212 25.655L50.1275 25.2038C51.185 26.8062 51.9462 28.635 52.2975 30.63L53.7187 38.6838L50.1175 51.29L44.965 29.3937L41.4975 45H38.6237C38.0425 42.1512 35.5187 40 32.5 40C29.0537 40 26.25 42.8037 26.25 46.25C26.25 49.6963 29.0537 52.5 32.5 52.5C35.5175 52.5 38.0425 50.3488 38.6237 47.5H43.5025L45.035 40.605L49.8825 61.2087L54.785 44.05L56.2162 51.2062C53.8287 60.5175 48.4325 68.985 40.9925 75.0737ZM36.25 46.25C36.25 48.3175 34.5675 50 32.5 50C30.4325 50 28.75 48.3175 28.75 46.25C28.75 44.1825 30.4325 42.5 32.5 42.5C34.5675 42.5 36.25 44.1825 36.25 46.25Z" fill="black"/>
</svg>
