<svg width="56" height="60" viewBox="0 0 56 60" fill="none" xmlns="http://www.w3.org/2000/svg">
<path d="M43.8086 44.7407L42.4828 46.0665L41.1571 47.3926L38.5055 44.7407L41.1571 42.0891L43.8086 44.7407Z" fill="#A49993"/>
<path d="M38.6187 35.573L40.4941 37.4488L33.8648 44.0777L31.8761 42.089L29.8875 40.1004L31.2132 38.7746L33.2019 36.7859L35.191 34.7972L36.5168 33.4711L38.5054 35.4601L38.6187 35.573Z" fill="#F9E7FC"/>
<path d="M29.3301 50.4102V59.0582H12.4551V50.6266C13.7109 51.7711 15.1719 52.7141 16.7973 53.3945L17.0836 53.5141C18.3066 54.0262 19.6191 54.2895 20.9449 54.2895H21.2383C22.3703 54.2895 23.491 54.0645 24.5352 53.6273H24.5355C24.5996 53.6004 24.6633 53.5734 24.727 53.5457C26.4734 52.7879 28.0258 51.716 29.3301 50.4102Z" fill="#FFBCA8"/>
<path d="M34.3664 33.9727L35.1906 34.797L35.191 34.7973L33.202 36.786L31.2133 38.7747L29.8875 40.1005L31.8762 42.0891L29.2246 44.7407L31.7406 47.2567C31.0793 48.4091 30.2692 49.4704 29.3301 50.4102C28.0258 51.7161 26.4735 52.788 24.727 53.5458C24.6633 53.5735 24.5996 53.6005 24.5356 53.6274H24.5352C23.491 54.0645 22.3703 54.2895 21.2383 54.2895H20.9449C19.6192 54.2895 18.3067 54.0262 17.0836 53.5141L16.7973 53.3946C15.1719 52.7141 13.711 51.7712 12.4551 50.6266C9.36995 47.8145 7.52307 43.7876 7.52307 39.4594V38.8559V33.6739C7.52307 28.6262 10.1985 23.9571 14.5539 21.4052L20.8774 17.7001L27.3356 21.4052C31.691 23.9571 34.3664 28.6262 34.3664 33.6739V33.9723V33.9727Z" fill="#FFD1C2"/>
<path d="M31.2691 9.73518C31.2695 9.73557 31.2695 9.73596 31.2695 9.73635C31.2695 9.73674 31.2699 9.73674 31.2699 9.73674C31.3402 9.78049 31.4105 9.82424 31.4804 9.86877C34.6769 11.8922 37.2328 14.7817 38.8941 18.1805L39.3261 19.0641C39.7832 19.9989 40.1136 20.9914 40.2898 22.0172C40.2914 22.0262 40.2929 22.0352 40.2945 22.0442C40.3757 22.5215 40.4218 23.0043 40.4386 23.4883C40.5058 25.4461 40.6671 31.1555 38.8351 35.1301L38.8347 35.1309L38.5054 35.4602L36.5168 33.4711L35.191 34.7973L35.1906 34.7969L34.3664 33.9727V33.9723V33.6739C34.3664 28.6262 31.691 23.9571 27.3355 21.4051L20.8773 17.7C20.8722 17.6371 20.2531 10.35 10.5847 9.74807C11.3812 4.75198 15.7078 0.933228 20.9285 0.933228C26.1445 0.933228 30.4679 4.74534 31.2691 9.73518Z" fill="#948982"/>
<path d="M20.8773 17.7L14.5539 21.4051C10.1984 23.957 7.52302 28.6262 7.52302 33.6738V38.8559L5.43591 36.4129C2.85896 33.0934 1.32458 29.6527 1.32458 25.125C1.32458 25.0555 1.32498 24.9859 1.32576 24.9168C1.35779 21.8352 2.34021 18.8383 4.09998 16.3086L4.89646 15.1641C6.39646 13.0082 8.3113 11.1695 10.5383 9.77695C10.5539 9.76719 10.5691 9.75781 10.5847 9.74805C20.2531 10.35 20.8722 17.6371 20.8773 17.7Z" fill="#A49993"/>
<path d="M31.2706 10.6734C31.0968 10.6734 30.9229 10.6254 30.7703 10.5289C28.7486 9.27347 26.5366 8.42796 24.1957 8.01585C23.6857 7.92609 23.3451 7.43991 23.4349 6.92999C23.5247 6.42007 24.0109 6.07952 24.5207 6.16925C27.0951 6.62249 29.528 7.55175 31.7515 8.93109C31.8112 8.96675 31.8671 9.00917 31.918 9.05777C32.2926 9.41527 32.3064 10.0087 31.9489 10.3832C31.7647 10.5762 31.5178 10.6734 31.2706 10.6734Z" fill="#333333"/>
<path d="M20.8772 47.8085C18.9678 47.8085 17.1727 47.0648 15.8226 45.7145C15.4565 45.3484 15.4566 44.7548 15.8227 44.3887C16.1889 44.0226 16.7824 44.0226 17.1485 44.3888C18.1445 45.3849 19.4687 45.9335 20.8772 45.9335C22.2857 45.9335 23.6099 45.3849 24.6058 44.3888C24.9719 44.0226 25.5655 44.0226 25.9317 44.3887C26.2978 44.7548 26.2979 45.3484 25.9317 45.7145C24.5816 47.0648 22.7865 47.8085 20.8772 47.8085Z" fill="#333333"/>
<path d="M21.2382 55.227H20.9449C19.4864 55.227 18.0654 54.9417 16.7214 54.3789L16.4361 54.2598C14.7343 53.5473 13.1827 52.5582 11.8235 51.3196C8.49463 48.2853 6.58545 43.9625 6.58545 39.4594V33.6739C6.58545 31.0339 7.2792 28.4278 8.59166 26.1375C9.90424 23.8471 11.802 21.9309 14.0799 20.5963L20.4033 16.8912C20.6934 16.7212 21.0522 16.7196 21.3438 16.8869L27.802 20.592C27.8045 20.5934 27.8069 20.5948 27.8094 20.5963C30.0872 21.9309 31.985 23.8471 33.2976 26.1375C34.6101 28.4278 35.3038 31.0339 35.3038 33.6739V33.9724C35.3038 34.4902 34.8841 34.9099 34.3663 34.9099C33.8485 34.9099 33.4288 34.4902 33.4288 33.9724V33.6739C33.4288 28.9801 30.9136 24.59 26.8649 22.2161L20.8822 18.7837L15.0277 22.2141C10.9769 24.5875 8.46049 28.9787 8.46049 33.6739V39.4594C8.46049 43.4363 10.1466 47.254 13.0865 49.9338C14.2866 51.0274 15.6569 51.9009 17.1592 52.5298L17.4447 52.649C18.5591 53.1156 19.7364 53.352 20.9449 53.352H21.2382C22.2514 53.352 23.2388 53.1537 24.1731 52.7627C24.1777 52.7607 24.1824 52.7588 24.1871 52.757C24.2422 52.7337 24.2971 52.7104 24.3521 52.6865C25.968 51.9853 27.4191 50.9968 28.6667 49.7478C29.545 48.8687 30.3056 47.8737 30.9274 46.7901C31.1851 46.341 31.7581 46.1858 32.2072 46.4436C32.6563 46.7014 32.8114 47.2743 32.5536 47.7234C31.8496 48.9502 30.9881 50.0772 29.9932 51.0729C28.5781 52.4896 26.9318 53.611 25.1 54.4058C25.0343 54.4345 24.967 54.463 24.8992 54.4915C24.8931 54.4941 24.8871 54.4966 24.8809 54.499C23.721 54.982 22.4955 55.227 21.2382 55.227Z" fill="#333333"/>
<path d="M20.8773 18.6378C20.3836 18.6378 19.979 18.2563 19.9425 17.7719C19.9334 17.683 19.7524 16.0624 18.5533 14.4177C16.9141 12.1696 14.2136 10.9133 10.5265 10.6838C10.0097 10.6516 9.61687 10.2066 9.64906 9.68984C9.68125 9.17308 10.1261 8.77999 10.643 8.81242C12.9863 8.95832 15.0302 9.49636 16.718 10.4116C18.0991 11.1605 19.2427 12.1594 20.117 13.3804C21.6232 15.4838 21.8048 17.538 21.8118 17.6244C21.8138 17.6496 21.8148 17.6748 21.8148 17.7001C21.8148 18.2178 21.3951 18.6378 20.8773 18.6378Z" fill="#333333"/>
<path d="M14.8844 31.588C14.0367 31.588 13.2399 31.258 12.6406 30.6586C12.2744 30.2925 12.2744 29.6989 12.6406 29.3328C13.0067 28.9667 13.6002 28.9667 13.9664 29.3328C14.2115 29.578 14.5376 29.713 14.8844 29.713C15.2311 29.713 15.5571 29.578 15.8023 29.3328C16.1684 28.9667 16.762 28.9667 17.1281 29.3328C17.4942 29.699 17.4942 30.2925 17.1281 30.6586C16.5288 31.258 15.7319 31.588 14.8844 31.588Z" fill="#333333"/>
<path d="M7.52345 39.7934C7.25873 39.7934 6.99568 39.6819 6.81021 39.4649L4.7231 37.0219C4.71357 37.0108 4.70435 36.9994 4.69537 36.9878C1.7158 33.1497 0.387085 29.491 0.387085 25.125C0.387085 25.0519 0.387515 24.9789 0.388335 24.9062C0.422164 21.6498 1.43955 18.4914 3.33041 15.7732L4.12697 14.6286C5.64884 12.4413 7.53431 10.6088 9.73462 9.17764C10.2288 6.69069 11.5501 4.42374 13.4858 2.75674C15.5533 0.976274 18.1965 -0.00427246 20.9285 -0.00427246C23.658 -0.00427246 26.2993 0.974712 28.3658 2.75229C30.3004 4.41651 31.6222 6.68006 32.1186 9.16397C35.3756 11.2606 38.0083 14.2333 39.7364 17.7688L40.1684 18.6523C40.6745 19.6874 41.0262 20.7662 41.2138 21.8586L41.2182 21.8834C41.3041 22.3883 41.3569 22.9162 41.3756 23.4558C41.4052 24.317 41.4744 26.333 41.2834 28.6306C41.0528 31.4053 40.5156 33.7242 39.6866 35.5226C39.4698 35.9928 38.9128 36.1982 38.4427 35.9815C37.9725 35.7648 37.767 35.2079 37.9838 34.7377C39.159 32.188 39.6697 28.414 39.5017 23.5205C39.4859 23.0646 39.4417 22.6208 39.3704 22.2015L39.3663 22.178C39.2085 21.2592 38.9117 20.3508 38.484 19.4759L38.0519 18.5923C36.4525 15.3201 34.0068 12.5775 30.979 10.661C30.9137 10.6194 30.85 10.5796 30.7864 10.5401C30.5614 10.4043 30.3979 10.1767 30.348 9.90936C30.3464 9.90088 30.3449 9.89237 30.3435 9.88385C29.5979 5.24073 25.6384 1.87073 20.9285 1.87073C16.2127 1.87073 12.2519 5.24569 11.5105 9.89565C11.4679 10.1633 11.3115 10.3994 11.0817 10.543L11.0352 10.5719C8.91912 11.8951 7.11259 13.6203 5.66595 15.6995L4.86943 16.8441C3.19435 19.2521 2.29306 22.0469 2.26314 24.9265C2.2624 24.993 2.26201 25.059 2.26201 25.125C2.26201 29.0403 3.46533 32.3399 6.16306 35.8208L8.23576 38.2469C8.57209 38.6405 8.5256 39.2323 8.13193 39.5686C7.95537 39.7196 7.73884 39.7934 7.52345 39.7934Z" fill="#333333"/>
<path d="M38.618 36.5107C38.4725 36.5107 38.3249 36.4768 38.1869 36.4052C37.7273 36.1667 37.5481 35.6008 37.7866 35.1413C37.8524 35.0145 37.9185 34.879 37.9833 34.7384C38.2001 34.2681 38.7571 34.0627 39.2272 34.2795C39.6974 34.4962 39.9029 35.0531 39.6862 35.5233C39.6092 35.6903 39.53 35.8523 39.4509 36.0049C39.284 36.3264 38.9568 36.5107 38.618 36.5107Z" fill="#333333"/>
<path d="M29.3301 59.9957H12.4551C11.9373 59.9957 11.5176 59.576 11.5176 59.0582V50.6266C11.5176 50.1088 11.9373 49.6891 12.4551 49.6891C12.9729 49.6891 13.3926 50.1088 13.3926 50.6266V58.1207H28.3926V50.4102C28.3926 49.8924 28.8123 49.4727 29.3301 49.4727C29.8479 49.4727 30.2676 49.8924 30.2676 50.4102V59.0582C30.2676 59.576 29.8479 59.9957 29.3301 59.9957Z" fill="#333333"/>
<path d="M34.955 23.4335C34.5624 23.4335 34.1966 23.1851 34.0657 22.7922C31.4664 14.9946 25.5074 14.0574 25.4475 14.0488C24.9349 13.9756 24.5788 13.5007 24.652 12.9881C24.7252 12.4755 25.2002 12.1195 25.7127 12.1926C25.788 12.2034 27.5818 12.472 29.7222 13.857C30.9648 14.6611 32.0804 15.6811 33.0382 16.8887C34.2241 18.384 35.1683 20.1707 35.8445 22.1992C36.0082 22.6904 35.7428 23.2213 35.2516 23.3851C35.1532 23.4179 35.0532 23.4335 34.955 23.4335Z" fill="#333333"/>
<path d="M41.1569 43.0266C40.917 43.0266 40.6771 42.9351 40.494 42.7521C40.1279 42.3859 40.1279 41.7924 40.494 41.4262L44.4714 37.4489L41.1569 34.1341L39.5131 35.7779C39.508 35.7833 39.5028 35.7885 39.4976 35.7938L39.1683 36.1232C38.8022 36.4893 38.2086 36.4893 37.8425 36.1232C37.4764 35.7571 37.4763 35.1635 37.8424 34.7974L38.1565 34.4833C38.1617 34.4779 38.1669 34.4726 38.1721 34.4673L40.494 32.1454C40.6698 31.9696 40.9082 31.8708 41.1569 31.8708C41.4055 31.8708 41.6441 31.9696 41.8199 32.1455L46.4601 36.7861C46.8262 37.1523 46.8262 37.7458 46.4601 38.1119L41.8198 42.7521C41.6368 42.9351 41.3969 43.0266 41.1569 43.0266Z" fill="#333333"/>
<path d="M33.8648 50.3188C33.6161 50.3188 33.3777 50.22 33.2018 50.0441L28.5617 45.4036C28.3859 45.2278 28.2871 44.9893 28.2871 44.7407C28.2871 44.492 28.3859 44.2536 28.5617 44.0777L31.2133 41.4262C31.5794 41.0601 32.173 41.0601 32.5391 41.4262C32.9052 41.7923 32.9052 42.3859 32.5391 42.752L30.5504 44.7406L33.8649 48.0553L37.8426 44.0777C38.2087 43.7116 38.8023 43.7116 39.1684 44.0777C39.5345 44.4438 39.5345 45.0374 39.1684 45.4035L34.5277 50.0441C34.3519 50.22 34.1135 50.3188 33.8648 50.3188Z" fill="#333333"/>
<path d="M33.8648 45.0153C33.6248 45.0153 33.3849 44.9237 33.2018 44.7407L29.2245 40.7634C28.8584 40.3972 28.8584 39.8037 29.2245 39.4376L35.8537 32.8083C36.0296 32.6325 36.268 32.5337 36.5167 32.5337C36.7654 32.5337 37.0039 32.6325 37.1798 32.8083L39.2805 34.9091C39.2809 34.9095 39.2813 34.9099 39.2817 34.9103L41.1571 36.7861C41.5231 37.1522 41.5231 37.7458 41.1569 38.1118L34.5276 44.7407C34.3446 44.9237 34.1046 45.0153 33.8648 45.0153ZM31.2132 40.1004L33.8648 42.7519L39.1683 37.4488L36.5168 34.7971L31.2132 40.1004Z" fill="#333333"/>
<path d="M41.1571 48.3301C40.9084 48.3301 40.6699 48.2314 40.4941 48.0555L37.8425 45.4036C37.4765 45.0374 37.4765 44.4439 37.8426 44.0778L40.4941 41.4262C40.8603 41.0601 41.4538 41.0601 41.82 41.4262L44.4715 44.0778C44.6473 44.2536 44.7461 44.492 44.7461 44.7407C44.7461 44.9894 44.6473 45.2278 44.4715 45.4036L41.8201 48.0555C41.6443 48.2313 41.4058 48.3301 41.1571 48.3301ZM39.8313 44.7407L41.157 46.0666L42.4828 44.7407L41.1571 43.415L39.8313 44.7407Z" fill="#333333"/>
<path d="M54.6754 59.1965C54.4354 59.1965 54.1955 59.105 54.0124 58.9219L41.8199 46.7293C41.4538 46.3632 41.4538 45.7696 41.8199 45.4035C42.186 45.0374 42.7795 45.0374 43.1457 45.4035L55.3383 57.5961C55.7044 57.9622 55.7044 58.5558 55.3383 58.9219C55.1552 59.105 54.9153 59.1965 54.6754 59.1965Z" fill="#333333"/>
<path d="M31.2133 39.7122C30.9733 39.7122 30.7334 39.6206 30.5503 39.4376L28.5617 37.4489C28.1956 37.0828 28.1956 36.4892 28.5617 36.1231C28.9278 35.757 29.5214 35.757 29.8875 36.1231L31.8762 38.1118C32.2423 38.4779 32.2423 39.0715 31.8762 39.4376C31.6931 39.6206 31.4532 39.7122 31.2133 39.7122Z" fill="#333333"/>
<path d="M33.2019 37.7234C32.9619 37.7234 32.7221 37.6319 32.5389 37.4488L30.5503 35.4597C30.1842 35.0936 30.1842 34.5 30.5504 34.1339C30.9165 33.7678 31.5101 33.7679 31.8762 34.1341L33.8649 36.1231C34.231 36.4893 34.2309 37.0829 33.8648 37.4489C33.6817 37.6319 33.4418 37.7234 33.2019 37.7234Z" fill="#333333"/>
<path d="M35.1906 35.7344C34.9506 35.7344 34.7107 35.6429 34.5276 35.4598L32.539 33.4711C32.1729 33.105 32.1729 32.5115 32.539 32.1453C32.9051 31.7792 33.4987 31.7792 33.8648 32.1453L35.8535 34.134C36.2196 34.5001 36.2196 35.0937 35.8535 35.4598C35.6704 35.6429 35.4305 35.7344 35.1906 35.7344Z" fill="#333333"/>
<path d="M25.4745 33.7457C25.2346 33.7457 24.9947 33.6542 24.8116 33.4712L24.1487 32.8083C23.7826 32.4422 23.7826 31.8486 24.1487 31.4825C24.5148 31.1164 25.1085 31.1163 25.4746 31.4825L26.1375 32.1454C26.5036 32.5114 26.5036 33.105 26.1375 33.4712C25.9544 33.6542 25.7144 33.7457 25.4745 33.7457Z" fill="#333333"/>
<path d="M29.452 32.42C29.212 32.42 28.9721 32.3284 28.789 32.1454L28.1261 31.4825C27.76 31.1164 27.76 30.5228 28.1261 30.1567C28.4923 29.7905 29.0858 29.7905 29.452 30.1567L30.1148 30.8196C30.4809 31.1857 30.4809 31.7793 30.1148 32.1454C29.9318 32.3284 29.6919 32.42 29.452 32.42Z" fill="#333333"/>
<path d="M24.1488 37.7234C23.9089 37.7234 23.669 37.6319 23.486 37.4488L22.8231 36.7859C22.4569 36.4198 22.4569 35.8263 22.8231 35.4601C23.1892 35.0941 23.7828 35.094 24.1489 35.4601L24.8118 36.123C25.1779 36.4891 25.1779 37.0827 24.8118 37.4488C24.6287 37.6318 24.3888 37.7234 24.1488 37.7234Z" fill="#333333"/>
</svg>
