<svg width="80" height="80" viewBox="0 0 80 80" fill="none" xmlns="http://www.w3.org/2000/svg">
<path d="M68.955 36.8312C70.845 29.0263 69.0813 20.93 64.1156 14.6187C59.15 8.3075 51.6963 4.6875 43.6656 4.6875C29.3181 4.6875 17.6456 16.36 17.6456 30.7075V33.6162L12.9756 47.9012C12.6338 48.9475 12.8081 50.0587 13.4544 50.95C14.1006 51.8412 15.1025 52.3525 16.2031 52.3525H18.0975C18.5169 52.3525 18.8581 52.6938 18.8581 53.1131V61.08C18.8581 63.7162 21.0031 65.8612 23.6394 65.8612H32.8188C34.7663 65.8612 36.35 67.4456 36.35 69.3931V75.8012C36.35 76.91 37.2519 77.8119 38.3606 77.8119H63.7463C64.3381 77.8119 64.8969 77.5531 65.2794 77.1019C65.6619 76.6506 65.8263 76.0575 65.73 75.4744L64.6544 68.9512C63.7194 63.2844 63.9306 57.5806 65.2825 51.9981L68.955 36.8312Z" fill="#E6E7E8"/>
<path d="M34.4756 73.3019V66.8938C34.4756 64.5981 32.6144 62.7369 30.3188 62.7369H21.1394C18.8438 62.7369 16.9825 60.8756 16.9825 58.58V50.6138C16.9825 49.8488 16.3619 49.2281 15.5969 49.2281H13.7031C11.8181 49.2281 10.4838 47.3875 11.0694 45.5963L15.7706 31.2162V28.2075C15.7706 14.1825 27.1406 2.8125 41.1656 2.8125C57.6094 2.8125 69.7175 18.2019 65.8475 34.1838L62.175 49.3519C60.8113 54.985 60.5944 60.835 61.5375 66.5531L62.6138 73.0762C62.7531 73.92 62.1019 74.6875 61.2469 74.6875H35.8613C35.0956 74.6875 34.4756 74.0669 34.4756 73.3019Z" fill="#FFD7E5"/>
<path d="M41.1656 4.6875C55.18 4.6875 66.0369 15.8669 66.5456 29.0631C67.05 15.0687 55.8394 2.8125 41.1656 2.8125C27.1406 2.8125 15.7706 14.1825 15.7706 28.2075V30.0825C15.7706 16.0575 27.1406 4.6875 41.1656 4.6875Z" fill="white"/>
<path d="M60.5281 26.6844C57.7381 24.9206 54.5738 25.5994 52.6588 27.2531C50.6269 29.0081 49.9969 31.6688 49.9969 32.7106V33.5938H48.025C48.025 31.5169 46.4381 29.7875 44.3688 29.6094C42.1769 29.4206 39.5263 28.9256 37.9963 27.6819C36.5419 26.5 35.1819 23.6919 34.3181 21.6088C33.7525 20.2438 32.5044 19.2331 31.0313 19.1156C28.7688 18.935 26.8763 20.7175 26.8763 22.9425V30.1563H22.9744C21.3306 30.1563 19.8781 31.2269 19.3919 32.7975L15.815 44.3506C15.5663 45.155 16.1669 45.97 17.0094 45.97H37.97L41.0513 48.1919C41.4388 48.4713 41.6681 48.9194 41.6681 49.3969C41.6681 50.6331 40.2456 51.3288 39.27 50.5694L37.4125 49.1244H26.9238C24.5675 49.1244 22.6575 51.0344 22.6575 53.3906V55.5781C22.6575 57.9344 24.5675 59.8444 26.9238 59.8444H31.4744C32.2919 59.8444 33.0369 59.2563 33.1181 58.4431C33.2119 57.5081 32.48 56.7194 31.5638 56.7194H26.9238C26.2938 56.7194 25.7825 56.2088 25.7825 55.5781V53.3906C25.7825 52.7606 26.2931 52.2494 26.9238 52.2494H36.34L36.8463 52.6431C39.8888 55.01 41.6681 58.6488 41.6681 62.5031V74.6875H47.3994V39.5306H49.9963V40.1444C49.9963 40.1444 49.9188 42.5469 51.1044 44.2594C52.1038 45.7031 54.2819 46.4163 56.0225 45.6675C59.0106 44.3831 58.1206 41.6644 58.895 39.5806C59.2825 38.5388 61.6969 36.3913 62.6738 33.9663C63.6506 31.5419 62.9781 28.2331 60.5281 26.6844Z" fill="#FA759E"/>
<path d="M66.455 34.3312C68.345 26.5263 66.5813 18.43 61.6156 12.1187C56.65 5.8075 49.1963 2.1875 41.1656 2.1875C26.8181 2.1875 15.1456 13.86 15.1456 28.2075V31.1162L10.4756 45.4012C10.1338 46.4475 10.3081 47.5587 10.9544 48.45C11.6006 49.3412 12.6025 49.8525 13.7031 49.8525H15.5975C16.0169 49.8525 16.3581 50.1938 16.3581 50.6131V58.58C16.3581 61.2162 18.5031 63.3612 21.1394 63.3612H30.3188C32.2663 63.3612 33.85 64.9456 33.85 66.8931V73.3012C33.85 74.41 34.7519 75.3119 35.8606 75.3119H41.6681H47.3994H61.2463C61.8375 75.3119 62.3963 75.0531 62.7794 74.6025C63.1619 74.1513 63.3263 73.5581 63.23 72.9744L62.1544 66.4512C61.2194 60.7844 61.4306 55.0806 62.7825 49.4981L66.455 34.3312ZM60.9206 66.655L61.9963 73.1781C62.0331 73.4019 61.9725 73.6206 61.8256 73.7944C61.6788 73.9675 61.4731 74.0625 61.2463 74.0625H48.0244V59.8438C48.0244 59.4987 47.7444 59.2188 47.3994 59.2188C47.0544 59.2188 46.7744 59.4987 46.7744 59.8438V74.0625H42.2931V62.5025C42.2931 58.4256 40.4475 54.6519 37.23 52.1494L36.7238 51.7556C36.6138 51.67 36.4788 51.6237 36.34 51.6237H26.9238C25.95 51.6237 25.1575 52.4163 25.1575 53.39V55.5775C25.1575 56.5513 25.95 57.3438 26.9238 57.3438H31.5638C31.8281 57.3438 32.0819 57.4563 32.2594 57.6525C32.4394 57.8513 32.5231 58.1094 32.4963 58.38C32.4494 58.85 32.0006 59.2188 31.4744 59.2188H26.9238C24.9163 59.2188 23.2825 57.5856 23.2825 55.5775V53.39C23.2825 51.3825 24.9156 49.7487 26.9238 49.7487H37.1981L38.8863 51.0625C39.5275 51.5612 40.3806 51.6494 41.1094 51.2925C41.8394 50.9356 42.2931 50.2087 42.2931 49.3962C42.2931 48.7194 41.9656 48.08 41.4169 47.6844L38.3356 45.4619C38.2294 45.385 38.1013 45.3438 37.97 45.3438H17.0094C16.8088 45.3438 16.625 45.2512 16.5063 45.0894C16.3875 44.9275 16.3531 44.7256 16.4125 44.5337L19.9894 32.9806C20.3969 31.6644 21.5969 30.78 22.975 30.78L30.8663 30.7906C32.63 30.7906 34.0644 32.225 34.0644 33.9888V36.6275C34.0644 38.2625 34.9581 39.7612 36.3963 40.5387L46.775 46.1513V50.3125C46.775 50.6575 47.055 50.9375 47.4 50.9375C47.745 50.9375 48.025 50.6575 48.025 50.3125V40.1556H49.3719C49.3656 40.47 49.3644 42.8431 50.5913 44.615C51.8075 46.3731 54.3019 47.0869 56.27 46.2425C58.6906 45.2019 58.9181 43.315 59.1188 41.6506C59.1988 40.985 59.275 40.3556 59.4819 39.7994C59.6025 39.4738 60.0956 38.8656 60.6181 38.2219C61.5181 37.1125 62.6375 35.7319 63.2544 34.2006C64.285 31.6413 63.6725 27.9325 60.8631 26.1562C57.7169 24.1669 54.27 25.0362 52.2513 26.78C50.1544 28.5912 49.3731 31.3788 49.3731 32.7106V32.9694H48.61C48.3281 30.8419 46.6225 29.1769 44.4238 28.9869C41.6213 28.745 39.5356 28.1262 38.3919 27.1975C37.3425 26.3444 36.1013 24.275 34.8969 21.3694C34.2163 19.7288 32.755 18.6262 31.0819 18.4925C29.82 18.3937 28.6144 18.8069 27.6888 19.6619C26.7763 20.505 26.2525 21.7006 26.2525 22.9425V29.5312H22.9756C21.0463 29.5312 19.3669 30.7694 18.7963 32.6119L15.2188 44.1644C15.0406 44.7394 15.1431 45.3469 15.5006 45.8313C15.8581 46.3156 16.4081 46.5938 17.01 46.5938H37.7688L40.6863 48.6981C40.91 48.8594 41.0438 49.1206 41.0438 49.3962C41.0438 49.7325 40.8631 50.0213 40.5613 50.1694C40.2594 50.3181 39.9206 50.2825 39.6544 50.0763L37.7969 48.6312C37.6869 48.5456 37.5519 48.4994 37.4131 48.4994H26.9238C24.2269 48.4994 22.0325 50.6938 22.0325 53.3906V55.5781C22.0325 58.275 24.2269 60.4694 26.9238 60.4694H31.4744C32.6344 60.4694 33.6294 59.6069 33.74 58.505C33.8019 57.8881 33.6 57.2719 33.1863 56.8144C32.7719 56.3569 32.1813 56.0944 31.5638 56.0944H26.9238C26.6394 56.0944 26.4075 55.8625 26.4075 55.5781V53.3906C26.4075 53.1063 26.6394 52.8744 26.9238 52.8744H36.1256L36.4625 53.1362C39.3731 55.4006 41.0431 58.8144 41.0431 62.5025V74.0625H35.8606C35.4413 74.0625 35.1 73.7212 35.1 73.3019V66.8938C35.1 64.2569 32.955 62.1119 30.3188 62.1119H21.1394C19.1919 62.1119 17.6081 60.5275 17.6081 58.5806V50.6138C17.6081 49.505 16.7063 48.6031 15.5975 48.6031H13.7031C13.0075 48.6031 12.3744 48.28 11.9663 47.7169C11.5581 47.1538 11.4475 46.4512 11.6638 45.79L16.3644 31.41C16.385 31.3475 16.395 31.2819 16.395 31.2156V28.2075C16.3956 14.5494 27.5075 3.4375 41.1656 3.4375C48.81 3.4375 55.9056 6.88312 60.6325 12.8912C65.3594 18.8994 67.0388 26.6063 65.2394 34.0369L61.5675 49.205C60.1763 54.9506 59.9588 60.8213 60.9206 66.655ZM49.9969 38.9056H47.4C47.055 38.9056 46.775 39.1856 46.775 39.5306V44.7313L36.9906 39.44C35.9569 38.8806 35.3144 37.8031 35.3144 36.6275V33.9888C35.3144 31.5362 33.3188 29.5406 30.8663 29.5406H27.5019V22.9419C27.5019 22.0475 27.8788 21.1869 28.5363 20.58C29.2025 19.9644 30.0731 19.6687 30.9819 19.7381C32.1663 19.8331 33.2488 20.6613 33.7413 21.8475C34.6481 24.0363 36.0544 26.9094 37.6025 28.1669C38.96 29.27 41.2188 29.965 44.315 30.2319C46.0731 30.3837 47.4 31.8294 47.4 33.5938C47.4 33.9387 47.68 34.2188 48.025 34.2188H49.9969C50.3419 34.2188 50.6219 33.9387 50.6219 33.5938V32.71C50.6219 31.7725 51.22 29.3219 53.0675 27.7256C54.7369 26.2831 57.5881 25.565 60.1944 27.2125C62.4525 28.64 62.9331 31.6494 62.0938 33.7337C61.5475 35.09 60.4931 36.39 59.6463 37.4344C59.0069 38.2231 58.5013 38.8456 58.3088 39.3638C58.05 40.0594 57.9619 40.7925 57.8769 41.5013C57.6863 43.0863 57.5356 44.3375 55.7756 45.0944C54.3594 45.7031 52.4938 45.17 51.6181 43.9044C50.5688 42.3875 50.6206 40.1856 50.6213 40.1444V39.5306C50.6219 39.1856 50.3419 38.9056 49.9969 38.9056Z" fill="#3A2C60"/>
<path d="M47.3994 52.1094C47.0544 52.1094 46.7744 52.3894 46.7744 52.7344V57.2656C46.7744 57.6106 47.0544 57.8906 47.3994 57.8906C47.7444 57.8906 48.0244 57.6106 48.0244 57.2656V52.7344C48.0244 52.3894 47.745 52.1094 47.3994 52.1094Z" fill="#3A2C60"/>
<path d="M52.3994 40.6881H53.7638C55.2638 40.6881 56.4844 39.4675 56.4844 37.9675C56.4844 36.58 55.4407 35.4319 54.0969 35.2675V33.2894C54.0969 31.8606 55.2594 30.6981 56.6881 30.6981C58.1169 30.6981 59.2794 31.8606 59.2794 33.2894V34.5562C59.2794 34.9012 59.5594 35.1812 59.9044 35.1812C60.2494 35.1812 60.5294 34.9012 60.5294 34.5562V33.2894C60.5294 31.1712 58.8063 29.4481 56.6881 29.4481C54.57 29.4481 52.8469 31.1712 52.8469 33.2894V35.8719C52.8469 36.2169 53.1269 36.4969 53.4719 36.4969H53.7644C54.575 36.4969 55.235 37.1562 55.235 37.9675C55.235 38.7787 54.5757 39.4381 53.7644 39.4381H52.4C52.055 39.4381 51.775 39.7181 51.775 40.0631C51.775 40.4081 52.0544 40.6881 52.3994 40.6881Z" fill="#3A2C60"/>
</svg>
