<svg width="80" height="80" viewBox="0 0 80 80" fill="none" xmlns="http://www.w3.org/2000/svg">
<path d="M13.1345 74.657C13.1345 74.657 20.3906 76.0547 20.9375 70.9375C21.4844 65.8203 20.5713 60.7812 20.6958 58.7109C20.8203 56.6406 21.5235 48.2031 26.7578 49.1406C31.9922 50.0781 29.4141 51.7969 32.3438 49.8828C35.2735 47.9688 34.7535 51.001 38.125 50.9375C41.4966 50.874 45.7032 47.6953 46.3672 43.3984C47.0313 39.1016 46.9294 36.9764 43.7823 33.6719C40.6352 30.3673 39.1797 27.8906 39.1797 24.2578V15.5859H30.0781V8.75H38.711V0H45.6326V8.75H54.4531V15.7422H45.0781V24.4531C45.0781 24.4531 46.0156 29.2969 51.4844 28.8672C56.9531 28.4375 62.4568 31.491 64.5313 35.8203C66.6058 40.1496 66.4063 44.9609 65.7813 47.9297C65.1563 50.8984 62.2675 59.1406 51.8759 62.1875C41.4844 65.2344 33.9844 63.2812 27.4219 56.7188C27.4219 56.7188 25.2175 58.0382 26.25 62.9688C27.2826 67.8993 27.5 74.1406 20.9375 78.0859C14.375 82.0312 13.1345 74.657 13.1345 74.657Z" fill="#FC785E"/>
<path d="M51.425 47.5313C51.0925 47.1656 50.6326 46.9411 50.1398 46.9039C49.647 46.8667 49.1586 47.0196 48.775 47.3313C48.4856 47.5813 48.2796 47.9138 48.1846 48.2842C48.0896 48.6546 48.1101 49.0452 48.2434 49.4036C48.3767 49.7621 48.6164 50.0712 48.9304 50.2895C49.2444 50.5078 49.6176 50.6249 50 50.625C50.4485 50.6235 50.8822 50.4642 51.225 50.175C51.5998 49.8493 51.8311 49.3889 51.8687 48.8938C51.8887 48.6486 51.8597 48.4019 51.7836 48.168C51.7074 47.9341 51.5855 47.7177 51.425 47.5313ZM50.4062 49.225C50.2938 49.3231 50.1492 49.3765 50 49.375C49.9098 49.3746 49.8207 49.3548 49.7388 49.3171C49.6569 49.2794 49.584 49.2245 49.525 49.1563C49.4715 49.0939 49.4309 49.0217 49.4055 48.9436C49.38 48.8656 49.3702 48.7832 49.3766 48.7014C49.383 48.6195 49.4054 48.5397 49.4427 48.4666C49.48 48.3934 49.5313 48.3283 49.5937 48.275C49.7062 48.1769 49.8508 48.1235 50 48.125C50.0863 48.1252 50.1717 48.1432 50.2507 48.1778C50.3298 48.2125 50.4009 48.263 50.4595 48.3264C50.5181 48.3897 50.5631 48.4645 50.5916 48.546C50.6201 48.6275 50.6314 48.7139 50.625 48.8C50.6094 48.9645 50.5311 49.1167 50.4062 49.225Z" fill="#2D4356"/>
<path d="M50.625 48.8C50.6094 48.9646 50.5311 49.1168 50.4062 49.2251C50.2938 49.3231 50.1492 49.3765 50 49.375C49.9098 49.3746 49.8207 49.3548 49.7388 49.3171C49.6569 49.2794 49.584 49.2245 49.525 49.1563C49.4716 49.0939 49.431 49.0217 49.4055 48.9436C49.38 48.8656 49.3702 48.7833 49.3766 48.7014C49.383 48.6195 49.4054 48.5397 49.4427 48.4666C49.48 48.3934 49.5313 48.3283 49.5937 48.275C49.7062 48.1769 49.8508 48.1235 50 48.125C50.0863 48.1252 50.1717 48.1432 50.2507 48.1778C50.3298 48.2125 50.4009 48.2631 50.4595 48.3264C50.5182 48.3897 50.5631 48.4645 50.5916 48.546C50.6201 48.6275 50.6314 48.714 50.625 48.8Z" fill="#81D9E3"/>
<path d="M56.425 51.2813C56.0925 50.9156 55.6326 50.6911 55.1398 50.6539C54.647 50.6167 54.1586 50.7696 53.775 51.0813C53.4856 51.3313 53.2796 51.6638 53.1846 52.0342C53.0896 52.4046 53.1101 52.7952 53.2434 53.1536C53.3767 53.5121 53.6164 53.8212 53.9304 54.0395C54.2444 54.2578 54.6176 54.3749 55 54.375C55.4485 54.3735 55.8822 54.2142 56.225 53.925C56.5998 53.5993 56.8311 53.1389 56.8687 52.6438C56.8887 52.3986 56.8597 52.1519 56.7836 51.918C56.7074 51.6841 56.5855 51.4677 56.425 51.2813ZM55.4062 52.975C55.2938 53.0731 55.1492 53.1265 55 53.125C54.9098 53.1246 54.8207 53.1048 54.7388 53.0671C54.6569 53.0294 54.584 52.9745 54.525 52.9063C54.4715 52.8439 54.4309 52.7717 54.4055 52.6936C54.38 52.6156 54.3702 52.5332 54.3766 52.4514C54.383 52.3695 54.4054 52.2897 54.4427 52.2166C54.48 52.1434 54.5313 52.0783 54.5937 52.025C54.7062 51.9269 54.8508 51.8735 55 51.875C55.0863 51.8752 55.1717 51.8932 55.2507 51.9278C55.3298 51.9625 55.4009 52.013 55.4595 52.0764C55.5181 52.1397 55.5631 52.2145 55.5916 52.296C55.6201 52.3775 55.6314 52.4639 55.625 52.55C55.6094 52.7145 55.5311 52.8667 55.4062 52.975Z" fill="#2D4356"/>
<path d="M55.625 52.55C55.6094 52.7146 55.5311 52.8668 55.4062 52.9751C55.2938 53.0731 55.1492 53.1265 55 53.125C54.9098 53.1246 54.8207 53.1048 54.7388 53.0671C54.6569 53.0294 54.584 52.9745 54.525 52.9063C54.4716 52.8439 54.431 52.7717 54.4055 52.6936C54.38 52.6156 54.3702 52.5333 54.3766 52.4514C54.383 52.3695 54.4054 52.2897 54.4427 52.2166C54.48 52.1434 54.5313 52.0783 54.5937 52.025C54.7062 51.9269 54.8508 51.8735 55 51.875C55.0863 51.8752 55.1717 51.8932 55.2507 51.9278C55.3298 51.9625 55.4009 52.0131 55.4595 52.0764C55.5182 52.1397 55.5631 52.2145 55.5916 52.296C55.6201 52.3775 55.6314 52.464 55.625 52.55Z" fill="#81D9E3"/>
<path d="M50.175 53.1563C49.8433 52.7893 49.3832 52.5638 48.89 52.5266C48.3967 52.4894 47.908 52.6432 47.525 52.9563C47.2356 53.2063 47.0296 53.5388 46.9346 53.9092C46.8396 54.2796 46.8601 54.6702 46.9934 55.0286C47.1267 55.3871 47.3664 55.6961 47.6804 55.9144C47.9944 56.1328 48.3676 56.2498 48.75 56.25C49.1985 56.2485 49.6322 56.0892 49.975 55.8C50.3498 55.4743 50.5811 55.0139 50.6187 54.5188C50.6387 54.2736 50.6097 54.0269 50.5336 53.793C50.4574 53.5591 50.3355 53.3427 50.175 53.1563ZM49.1562 54.85C49.0438 54.9481 48.8992 55.0015 48.75 55C48.6598 54.9996 48.5707 54.9798 48.4888 54.9421C48.4069 54.9043 48.334 54.8495 48.275 54.7813C48.2215 54.7189 48.1809 54.6466 48.1555 54.5686C48.13 54.4905 48.1202 54.4082 48.1266 54.3264C48.133 54.2445 48.1554 54.1647 48.1927 54.0916C48.23 54.0184 48.2813 53.9533 48.3437 53.9C48.4562 53.8019 48.6008 53.7485 48.75 53.75C48.8363 53.7502 48.9217 53.7682 49.0007 53.8028C49.0798 53.8375 49.1509 53.888 49.2095 53.9514C49.2681 54.0147 49.3131 54.0895 49.3416 54.1709C49.3701 54.2524 49.3814 54.3389 49.375 54.425C49.3594 54.5895 49.2811 54.7417 49.1562 54.85Z" fill="#2D4356"/>
<path d="M49.375 54.425C49.3594 54.5896 49.2811 54.7418 49.1562 54.8501C49.0438 54.9481 48.8992 55.0015 48.75 55C48.6598 54.9996 48.5707 54.9798 48.4888 54.9421C48.4069 54.9044 48.334 54.8495 48.275 54.7813C48.2216 54.7189 48.181 54.6467 48.1555 54.5686C48.13 54.4906 48.1202 54.4083 48.1266 54.3264C48.133 54.2445 48.1554 54.1647 48.1927 54.0916C48.23 54.0184 48.2813 53.9533 48.3437 53.9C48.4562 53.8019 48.6008 53.7485 48.75 53.75C48.8363 53.7502 48.9217 53.7682 49.0007 53.8028C49.0798 53.8375 49.1509 53.8881 49.2095 53.9514C49.2682 54.0147 49.3131 54.0895 49.3416 54.171C49.3701 54.2525 49.3814 54.339 49.375 54.425Z" fill="#81D9E3"/>
<path d="M57.675 45.0313C57.3433 44.6643 56.8832 44.4388 56.39 44.4016C55.8967 44.3644 55.408 44.5182 55.025 44.8313C54.7356 45.0813 54.5296 45.4138 54.4346 45.7842C54.3396 46.1546 54.3601 46.5452 54.4934 46.9036C54.6267 47.2621 54.8664 47.5711 55.1804 47.7894C55.4944 48.0078 55.8676 48.1248 56.25 48.125C56.6985 48.1235 57.1322 47.9642 57.475 47.675C57.8498 47.3493 58.0811 46.8889 58.1187 46.3938C58.1387 46.1486 58.1097 45.9019 58.0336 45.668C57.9574 45.4341 57.8355 45.2177 57.675 45.0313ZM56.6562 46.725C56.5438 46.8231 56.3992 46.8765 56.25 46.875C56.1598 46.8746 56.0707 46.8548 55.9888 46.8171C55.9069 46.7793 55.834 46.7245 55.775 46.6563C55.7215 46.5939 55.6809 46.5216 55.6555 46.4436C55.63 46.3655 55.6202 46.2832 55.6266 46.2014C55.633 46.1195 55.6554 46.0397 55.6927 45.9666C55.73 45.8934 55.7813 45.8283 55.8437 45.775C55.9562 45.6769 56.1008 45.6235 56.25 45.625C56.3363 45.6252 56.4217 45.6432 56.5007 45.6778C56.5798 45.7125 56.6509 45.763 56.7095 45.8264C56.7681 45.8897 56.8131 45.9645 56.8416 46.0459C56.8701 46.1274 56.8814 46.2139 56.875 46.3C56.8594 46.4645 56.7811 46.6167 56.6562 46.725Z" fill="#2D4356"/>
<path d="M56.875 46.3C56.8594 46.4646 56.7811 46.6168 56.6562 46.7251C56.5438 46.8231 56.3992 46.8765 56.25 46.875C56.1598 46.8746 56.0707 46.8548 55.9888 46.8171C55.9069 46.7794 55.834 46.7245 55.775 46.6563C55.7216 46.5939 55.681 46.5217 55.6555 46.4436C55.63 46.3656 55.6202 46.2833 55.6266 46.2014C55.633 46.1195 55.6554 46.0397 55.6927 45.9666C55.73 45.8934 55.7813 45.8283 55.8437 45.775C55.9562 45.6769 56.1008 45.6235 56.25 45.625C56.3363 45.6252 56.4217 45.6432 56.5007 45.6778C56.5798 45.7125 56.6509 45.7631 56.7095 45.8264C56.7682 45.8897 56.8131 45.9645 56.8416 46.046C56.8701 46.1275 56.8814 46.214 56.875 46.3Z" fill="#81D9E3"/>
<path d="M53.7688 38.9938C53.4461 38.619 53.0196 38.3484 52.5431 38.216C52.0666 38.0837 51.5615 38.0957 51.0918 38.2504C50.6222 38.4051 50.2089 38.6957 49.9044 39.0853C49.5998 39.475 49.4177 39.9461 49.3809 40.4393C49.3442 40.9325 49.4546 41.4254 49.698 41.8559C49.9415 42.2863 50.3072 42.6349 50.7488 42.8575C51.1904 43.0801 51.688 43.1667 52.1789 43.1064C52.6697 43.0461 53.1317 42.8416 53.5063 42.5188C53.7553 42.3048 53.9597 42.0438 54.1077 41.7507C54.2558 41.4576 54.3445 41.1382 54.3689 40.8107C54.3933 40.4833 54.3528 40.1543 54.2498 39.8425C54.1469 39.5307 53.9834 39.2423 53.7688 38.9938ZM52.6875 41.575C52.4996 41.7357 52.2683 41.8371 52.0228 41.8663C51.7773 41.8955 51.5287 41.8513 51.3083 41.7392C51.088 41.6271 50.9058 41.4522 50.7849 41.2365C50.6639 41.0209 50.6097 40.7743 50.6289 40.5278C50.6481 40.2813 50.74 40.0461 50.8929 39.8519C51.0458 39.6576 51.2529 39.5131 51.488 39.4365C51.723 39.3599 51.9755 39.3548 52.2135 39.4217C52.4515 39.4887 52.6643 39.6247 52.825 39.8125C52.9332 39.9355 53.0151 40.0794 53.0657 40.2353C53.1162 40.3911 53.1342 40.5557 53.1188 40.7188C53.1073 40.883 53.0633 41.0433 52.9893 41.1903C52.9152 41.3373 52.8126 41.4681 52.6875 41.575Z" fill="#2D4356"/>
<path d="M53.1188 40.7187C53.096 41.006 52.9744 41.2765 52.7745 41.4841C52.5747 41.6917 52.3091 41.8236 52.0229 41.8573C51.7367 41.891 51.4477 41.8244 51.2051 41.6689C50.9625 41.5134 50.7813 41.2786 50.6925 41.0045C50.6036 40.7303 50.6126 40.4339 50.7178 40.1656C50.823 39.8974 51.018 39.6739 51.2696 39.5333C51.5211 39.3927 51.8136 39.3437 52.0972 39.3946C52.3809 39.4455 52.6381 39.5932 52.825 39.8125C52.9332 39.9355 53.0151 40.0794 53.0657 40.2352C53.1162 40.3911 53.1343 40.5556 53.1188 40.7187Z" fill="#81D9E3"/>
<path d="M21.7566 64.9304C21.7322 64.6051 21.709 64.2944 21.6907 64.0027L21.6498 63.3606C21.4651 60.484 21.2741 57.5098 21.8961 54.6869C22.4441 52.1991 23.4158 50.6409 24.784 50.0543C26.4139 49.3555 28.1992 50.246 28.5605 50.4431C29.0501 50.9801 29.7276 51.3082 30.4525 51.3593C31.1774 51.4104 31.8941 51.1807 32.4543 50.7178C34.2136 49.4684 36.1511 51.1261 36.2314 51.1963C36.2579 51.22 36.2865 51.2413 36.3168 51.2598C37.786 52.1668 40.2686 51.6174 41.4966 50.874C43.0813 49.8773 44.4242 48.5403 45.4278 46.96C46.4315 45.3797 47.0706 43.5958 47.2989 41.7377C47.5228 40.1468 47.3738 38.5257 46.8637 37.0023C46.3536 35.4789 45.4964 34.0949 44.3598 32.9596C40.3244 28.9474 39.9802 25.5984 39.9778 25.5984V15.625C39.9778 15.4592 39.9119 15.3003 39.7947 15.1831C39.6775 15.0659 39.5185 15 39.3528 15H30.5582V9.36613H38.725C38.8908 9.36613 39.0498 9.30028 39.167 9.18307C39.2842 9.06586 39.35 8.90689 39.35 8.74113V0.625C39.35 0.45924 39.2842 0.300269 39.167 0.183058C39.0498 0.065848 38.8908 0 38.725 0C38.5593 0 38.4003 0.065848 38.2831 0.183058C38.1659 0.300269 38.1 0.45924 38.1 0.625V8.11613H29.9332C29.7675 8.11613 29.6085 8.18197 29.4913 8.29918C29.3741 8.41639 29.3082 8.57536 29.3082 8.74113V15.625C29.3082 15.7908 29.3741 15.9497 29.4913 16.0669C29.6085 16.1842 29.7675 16.25 29.9332 16.25H38.7278L38.7296 25.647C38.7415 25.8008 39.0735 29.4666 43.4784 33.8458C44.4789 34.8484 45.2327 36.0699 45.6804 37.4137C46.128 38.7576 46.2572 40.187 46.0578 41.5894C45.8539 43.2595 45.2806 44.8633 44.3797 46.2843C43.4787 47.7053 42.2727 48.9079 40.849 49.8047C39.8328 50.4199 37.9163 50.7331 37.013 50.2197C36.0413 49.3891 33.7549 48.2611 31.7029 49.7192C31.5413 49.8595 31.3533 49.966 31.1498 50.0324C30.9464 50.0988 30.7318 50.1238 30.5185 50.1059C30.3053 50.088 30.0978 50.0275 29.9083 49.9281C29.7189 49.8287 29.5512 49.6923 29.4153 49.527C29.3754 49.4834 29.3296 49.4456 29.2792 49.4147C29.1751 49.3512 26.717 47.8741 24.3024 48.9008C22.5366 49.6521 21.3165 51.5082 20.6754 54.4183C20.0156 57.4133 20.2121 60.4773 20.4023 63.4412L20.4431 64.0808C20.4618 64.3768 20.4853 64.693 20.5099 65.0232C20.7529 68.2757 21.0858 72.7301 17.9336 73.8824C16.6158 74.2947 15.2185 74.3861 13.8581 74.1492C13.6947 74.1205 13.5267 74.1579 13.391 74.2532C13.2552 74.3484 13.1628 74.4936 13.1342 74.657C13.1055 74.8203 13.1429 74.9883 13.2381 75.1241C13.3334 75.2598 13.4786 75.3522 13.6419 75.3809C14.2116 75.478 14.7886 75.5262 15.3665 75.5249C16.3845 75.5386 17.3975 75.3803 18.3628 75.0567C22.4026 73.5797 22.0139 68.3746 21.7566 64.9304Z" fill="#2D4356"/>
<path d="M66.8372 42.7496C66.7045 38.1592 65.2649 34.5587 62.5592 32.0481C58.2733 28.0716 52.4085 28.2941 52.1222 28.3069C50.0186 28.5312 48.3753 28.1534 47.2418 27.1893C46.3365 26.3717 45.7628 25.2501 45.6296 24.0375V16.25H54.4244C54.5902 16.25 54.7492 16.1841 54.8664 16.0669C54.9836 15.9497 55.0494 15.7908 55.0494 15.625V8.74113C55.0494 8.57537 54.9836 8.41641 54.8664 8.2992C54.7492 8.182 54.5902 8.11614 54.4244 8.11613H46.2576V0.625C46.2576 0.45924 46.1918 0.300269 46.0746 0.183058C45.9574 0.065848 45.7984 0 45.6326 0C45.4669 0 45.3079 0.065848 45.1907 0.183058C45.0735 0.300269 45.0076 0.45924 45.0076 0.625V8.74113C45.0076 8.90689 45.0735 9.06586 45.1907 9.18307C45.3079 9.30028 45.4669 9.36613 45.6326 9.36613H53.7994V15H45.0046C44.8388 15 44.6799 15.0659 44.5627 15.1831C44.4454 15.3003 44.3796 15.4592 44.3796 15.625L44.3802 24.068C44.5176 25.6313 45.2459 27.0834 46.4166 28.1284C47.822 29.3317 49.7839 29.8096 52.2165 29.5529C52.2714 29.5492 57.8018 29.3393 61.709 32.9645C64.1599 35.2383 65.4648 38.5431 65.5905 42.8308C65.6552 43.479 66.9638 58.7573 48.7079 62.4481C48.5761 62.4762 35.3821 65.1599 27.9752 55.9046C27.9016 55.8124 27.8058 55.7405 27.6966 55.6957C27.5875 55.651 27.4688 55.6348 27.3517 55.6488C26.6855 55.7269 26.0831 56.9873 26.0767 57.0008C25.2054 58.8507 25.3623 61.1761 25.4886 63.0444L25.4941 63.1256C25.5515 63.9801 25.6644 64.823 25.7736 65.6384C26.0416 67.6397 26.2946 69.5306 25.7553 71.4606C25.0344 74.0468 23.3274 76.247 21.0013 77.5879C20.9306 77.6297 20.8688 77.6851 20.8195 77.7509C20.7701 77.8167 20.7343 77.8915 20.714 77.9712C20.6936 78.0508 20.6892 78.1337 20.7009 78.215C20.7127 78.2964 20.7403 78.3746 20.7824 78.4453C20.8244 78.5159 20.8799 78.5776 20.9458 78.6268C21.0117 78.6759 21.0867 78.7116 21.1664 78.7317C21.2461 78.7519 21.3289 78.7561 21.4103 78.7441C21.4916 78.7322 21.5698 78.7043 21.6403 78.6621C24.2438 77.1588 26.1536 74.694 26.959 71.7975C27.5678 69.6198 27.2855 67.511 27.0126 65.4724C26.9061 64.6771 26.796 63.855 26.741 63.0414L26.7356 62.9602C26.6193 61.2359 26.4743 59.0899 27.1942 57.5598C27.2434 57.4701 27.3295 57.3291 27.4198 57.1924C35.3781 66.4508 48.8318 63.6993 48.9624 63.6719C68.3423 59.754 66.8515 42.8747 66.8372 42.7496Z" fill="#2D4356"/>
<path d="M18.75 80C19.0952 80 19.375 79.7202 19.375 79.375C19.375 79.0298 19.0952 78.75 18.75 78.75C18.4048 78.75 18.125 79.0298 18.125 79.375C18.125 79.7202 18.4048 80 18.75 80Z" fill="#2D4356"/>
<path d="M61.25 49.375C61.5952 49.375 61.875 49.0952 61.875 48.75C61.875 48.4048 61.5952 48.125 61.25 48.125C60.9048 48.125 60.625 48.4048 60.625 48.75C60.625 49.0952 60.9048 49.375 61.25 49.375Z" fill="#2D4356"/>
<path d="M62.132 46.875C62.2681 46.8749 62.4004 46.8304 62.5089 46.7482C62.6174 46.666 62.6961 46.5507 62.7332 46.4197C64.3162 40.8112 60.6482 36.063 60.491 35.8634C60.4405 35.7983 60.3775 35.7438 60.3058 35.7032C60.2341 35.6625 60.1551 35.6364 60.0733 35.6264C59.9915 35.6164 59.9085 35.6227 59.8291 35.6449C59.7497 35.6671 59.6756 35.7048 59.6108 35.7558C59.5461 35.8068 59.492 35.8701 59.4518 35.9421C59.4116 36.014 59.3861 36.0932 59.3766 36.1751C59.3672 36.257 59.374 36.3399 59.3967 36.4191C59.4194 36.4984 59.4576 36.5723 59.509 36.6367C59.5435 36.6804 62.9419 41.0773 61.5302 46.0804C61.5037 46.1733 61.4993 46.2712 61.5171 46.3661C61.535 46.4611 61.5746 46.5507 61.633 46.6277C61.6913 46.7047 61.7668 46.7672 61.8534 46.8101C61.94 46.853 62.0353 46.8753 62.132 46.875Z" fill="#2D4356"/>
<path d="M36.1169 56.7779C33.2657 57.3993 31.8612 54.8193 31.803 54.7088C31.726 54.5621 31.5939 54.4519 31.4357 54.4025C31.2775 54.3531 31.1061 54.3687 30.9593 54.4456C30.8125 54.5226 30.7024 54.6547 30.653 54.8129C30.6036 54.9712 30.6191 55.1425 30.6961 55.2893C31.1415 56.1207 31.7978 56.8203 32.5992 57.3178C33.4006 57.8152 34.3188 58.093 35.2615 58.1232C35.6388 58.1221 36.0148 58.0804 36.383 57.9987C36.4634 57.9814 36.5395 57.9484 36.6071 57.9016C36.6746 57.8548 36.7323 57.7952 36.7768 57.7261C36.8213 57.657 36.8517 57.5798 36.8663 57.499C36.8809 57.4181 36.8794 57.3352 36.8619 57.2549C36.8444 57.1746 36.8112 57.0986 36.7643 57.0311C36.7173 56.9637 36.6576 56.9061 36.5884 56.8618C36.5192 56.8175 36.4419 56.7873 36.361 56.7729C36.2801 56.7585 36.1972 56.7602 36.1169 56.7779Z" fill="#2D4356"/>
<path opacity="0.3" d="M65.6188 44.5437C65.6063 44.2937 65.5938 44.1375 65.5875 44.0812C65.4625 39.7937 64.1625 36.4875 61.7063 34.2125C57.8 30.5875 52.2688 30.8 52.2187 30.8C49.7812 31.0625 47.825 30.5812 46.4187 29.3812C45.2465 28.3363 44.5177 26.8831 44.3812 25.3187V24.0687C44.5177 25.6331 45.2465 27.0863 46.4187 28.1312C47.5423 29.0471 48.9384 29.5637 50.3875 29.6C50.5875 29.6125 50.7875 29.6187 50.9875 29.6187C51.1812 29.6187 51.3812 29.6125 51.5812 29.6C51.7687 29.5937 51.9562 29.575 52.1437 29.5562C52.1875 29.5562 52.2812 29.55 52.4062 29.55C52.5 29.55 52.6312 29.55 52.7875 29.5562C52.8937 29.5625 53.0062 29.5625 53.1375 29.5687C54.8812 29.675 58.7562 30.225 61.7062 32.9625C64.1624 35.2375 65.4624 38.5437 65.5875 42.8312C65.6357 43.4007 65.6462 43.9728 65.6188 44.5437Z" fill="#F9DBD7"/>
<path opacity="0.3" d="M53.8 9.36877V10.6188H45.6312C45.4656 10.6183 45.3069 10.5523 45.1898 10.4352C45.0727 10.3181 45.0067 10.1594 45.0062 9.99377V8.74377C45.0067 8.90938 45.0727 9.06807 45.1898 9.18517C45.3069 9.30227 45.4656 9.36828 45.6312 9.36877H53.8Z" fill="#F9DBD7"/>
<path opacity="0.5" d="M48.7062 62.45C48.6812 62.45 48.2125 62.55 47.4187 62.6438C47.0437 62.6938 46.6062 62.7313 46.1187 62.7625C45.975 62.775 45.825 62.7813 45.675 62.7875C45.5187 62.8 45.3625 62.8063 45.2062 62.8063C43.9322 62.8491 42.6568 62.8115 41.3875 62.6938C41.0562 62.6563 40.7187 62.6188 40.375 62.5688C36.275 61.9875 31.475 60.2875 27.975 55.9063C27.901 55.8142 27.8048 55.7424 27.6955 55.6976C27.5862 55.6528 27.4673 55.6364 27.35 55.65C26.6875 55.725 26.0812 56.9875 26.075 57C25.6475 57.9896 25.4181 59.0535 25.4 60.1313C25.2845 58.6384 25.5155 57.139 26.075 55.75C26.0812 55.7375 26.6875 54.475 27.35 54.4C27.4673 54.3864 27.5862 54.4028 27.6955 54.4476C27.8048 54.4924 27.901 54.5642 27.975 54.6563C35.3812 63.9125 48.575 61.225 48.7062 61.2C63.525 58.2 65.4562 47.575 65.6187 43.3313C65.7312 46.1063 65.3375 59.0875 48.7062 62.45Z" fill="#A54B3F"/>
<path opacity="0.5" d="M53.8 13.75V15H45.0062C44.8406 15.0005 44.6819 15.0665 44.5648 15.1836C44.4477 15.3007 44.3817 15.4594 44.3812 15.625V14.375C44.3817 14.2094 44.4477 14.0507 44.5648 13.9336C44.6819 13.8165 44.8406 13.7505 45.0062 13.75H53.8Z" fill="#A54B3F"/>
<path opacity="0.3" d="M30.6312 9.36877V10.6188H38.8C38.9656 10.6183 39.1243 10.5523 39.2414 10.4352C39.3585 10.3181 39.4245 10.1594 39.425 9.99377V8.74377C39.4245 8.90938 39.3585 9.06807 39.2414 9.18517C39.1243 9.30227 38.9656 9.36828 38.8 9.36877H30.6312Z" fill="#F9DBD7"/>
<path opacity="0.5" d="M30.6312 13.75V15H39.425C39.5906 15.0005 39.7493 15.0665 39.8664 15.1836C39.9835 15.3007 40.0495 15.4594 40.05 15.625V14.375C40.0495 14.2094 39.9835 14.0507 39.8664 13.9336C39.7493 13.8165 39.5906 13.7505 39.425 13.75H30.6312Z" fill="#A54B3F"/>
<path opacity="0.3" d="M47.3 42.9875C47.071 44.846 46.4311 46.6303 45.4268 48.2107C44.4225 49.7912 43.079 51.1283 41.4938 52.125C40.2688 52.8688 37.7875 53.4188 36.3188 52.5125C36.287 52.4932 36.2576 52.4701 36.2313 52.4438C36.1501 52.375 34.2125 50.7188 32.4563 51.9688C31.8962 52.4319 31.1793 52.6617 30.4544 52.6105C29.7294 52.5593 29.052 52.2311 28.5625 51.6938C28.2 51.4938 26.4125 50.6063 24.7813 51.3063C23.4188 51.8938 22.4438 53.45 21.8938 55.9375C21.6342 57.1732 21.496 58.4313 21.4813 59.6938C21.4238 58.0147 21.5623 56.3346 21.8938 54.6875C22.4438 52.2 23.4188 50.6438 24.7813 50.0563C26.4125 49.3563 28.2 50.2438 28.5625 50.4438C28.8045 50.7161 29.0981 50.9376 29.4265 51.0953C29.7548 51.253 30.1112 51.3439 30.475 51.3625C30.5332 51.3678 30.5916 51.3698 30.65 51.3688C31.3051 51.3457 31.9367 51.1184 32.4563 50.7188C32.8126 50.4624 33.2315 50.3069 33.6688 50.2688C33.825 50.2625 33.975 50.2625 34.125 50.2688C34.2 50.275 34.2751 50.2813 34.35 50.2938C35.0421 50.4328 35.6887 50.7422 36.2313 51.1938C36.2576 51.2201 36.287 51.2432 36.3188 51.2625C37.7875 52.1688 40.2688 51.6188 41.4938 50.875C43.079 49.8783 44.4225 48.5412 45.4268 46.9607C46.4311 45.3803 47.071 43.596 47.3 41.7375C47.3313 41.4875 47.35 41.2375 47.3625 40.9875C47.4006 41.6548 47.3797 42.324 47.3 42.9875Z" fill="#F9DBD7"/>
<path opacity="0.3" d="M50.625 48.8C50.6094 48.9646 50.5311 49.1168 50.4063 49.2251C50.2938 49.3231 50.1492 49.3765 50 49.375C49.9098 49.3746 49.8208 49.3548 49.7388 49.3171C49.6569 49.2794 49.584 49.2245 49.525 49.1563C49.4413 49.0578 49.3904 48.9356 49.3792 48.8069C49.368 48.6781 49.3971 48.549 49.4625 48.4375C49.4789 48.4715 49.4999 48.5031 49.525 48.5313C49.584 48.5995 49.6569 48.6544 49.7388 48.6921C49.8208 48.7298 49.9098 48.7496 50 48.75C50.1492 48.7515 50.2938 48.6981 50.4063 48.6C50.4604 48.5527 50.505 48.4954 50.5375 48.4313C50.6065 48.5412 50.6372 48.6708 50.625 48.8Z" fill="#0F423C"/>
<path opacity="0.3" d="M55.625 52.55C55.6094 52.7146 55.5311 52.8668 55.4063 52.9751C55.2938 53.0731 55.1492 53.1265 55 53.125C54.9098 53.1246 54.8208 53.1048 54.7388 53.0671C54.6569 53.0294 54.584 52.9745 54.525 52.9063C54.4413 52.8078 54.3904 52.6856 54.3792 52.5569C54.368 52.4281 54.3971 52.299 54.4625 52.1875C54.4789 52.2215 54.4999 52.2531 54.525 52.2813C54.584 52.3495 54.6569 52.4044 54.7388 52.4421C54.8208 52.4798 54.9098 52.4996 55 52.5C55.1492 52.5015 55.2938 52.4481 55.4063 52.35C55.4604 52.3027 55.505 52.2454 55.5375 52.1813C55.6065 52.2912 55.6372 52.4208 55.625 52.55Z" fill="#0F423C"/>
<path opacity="0.3" d="M49.375 54.425C49.3594 54.5896 49.2811 54.7418 49.1563 54.8501C49.0438 54.9481 48.8992 55.0015 48.75 55C48.6598 54.9996 48.5708 54.9798 48.4888 54.9421C48.4069 54.9044 48.334 54.8495 48.275 54.7813C48.1913 54.6828 48.1404 54.5606 48.1292 54.4319C48.118 54.3031 48.1471 54.174 48.2125 54.0625C48.2289 54.0965 48.2499 54.1281 48.275 54.1563C48.334 54.2245 48.4069 54.2794 48.4888 54.3171C48.5708 54.3548 48.6598 54.3746 48.75 54.375C48.8992 54.3765 49.0438 54.3231 49.1563 54.225C49.2104 54.1777 49.255 54.1204 49.2875 54.0563C49.3565 54.1662 49.3872 54.2958 49.375 54.425Z" fill="#0F423C"/>
<path opacity="0.3" d="M56.875 46.3C56.8594 46.4646 56.7811 46.6168 56.6563 46.7251C56.5438 46.8231 56.3992 46.8765 56.25 46.875C56.1598 46.8746 56.0708 46.8548 55.9888 46.8171C55.9069 46.7794 55.834 46.7245 55.775 46.6563C55.6913 46.5578 55.6404 46.4356 55.6292 46.3069C55.618 46.1781 55.6471 46.049 55.7125 45.9375C55.7289 45.9715 55.7499 46.0031 55.775 46.0313C55.834 46.0995 55.9069 46.1544 55.9888 46.1921C56.0708 46.2298 56.1598 46.2496 56.25 46.25C56.3992 46.2515 56.5438 46.1981 56.6563 46.1C56.7104 46.0527 56.755 45.9954 56.7875 45.9313C56.8565 46.0412 56.8872 46.1708 56.875 46.3Z" fill="#0F423C"/>
<path opacity="0.3" d="M53.1187 40.7188C53.1005 40.9655 53.0094 41.2012 52.857 41.396C52.7046 41.5909 52.4977 41.736 52.2626 41.813C52.0276 41.89 51.7749 41.8955 51.5367 41.8286C51.2986 41.7618 51.0856 41.6256 50.925 41.4375C50.7916 41.2852 50.6983 41.1019 50.6536 40.9044C50.6088 40.7069 50.614 40.5013 50.6687 40.3063C50.7091 40.4943 50.7974 40.6687 50.925 40.8125C51.1405 41.0645 51.4472 41.2205 51.7778 41.2463C52.1083 41.2721 52.4355 41.1655 52.6875 40.95C52.8846 40.7808 53.0226 40.5531 53.0812 40.3C53.1187 40.4363 53.1314 40.5781 53.1187 40.7188Z" fill="#0F423C"/>
</svg>
