<svg width="167" height="80" viewBox="0 0 167 80" fill="none" xmlns="http://www.w3.org/2000/svg">
<path d="M46.6714 78.902C56.6395 81.1188 66.5525 74.8524 68.7792 64.934L78.3228 22.4167C79.762 16.0013 77.635 9.2579 72.7692 4.81935C68.031 0.47203 60.9012 -1.12429 54.7073 0.814586L12.9684 13.8361C6.69024 15.7934 1.88185 20.9922 0.443254 27.4018C-0.99444 33.806 1.12383 40.5424 5.97643 44.986L37.4746 73.8114C39.9819 76.3633 43.1601 78.121 46.6714 78.902Z" fill="#FFD86E"/>
<path d="M90.3255 35.0701L90.3224 33.935L90.2349 32.8283L90.067 31.7489L89.8229 30.6957L89.5062 29.6679L89.1207 28.6652L88.6703 27.6874L88.1585 26.7348L87.5893 25.807L86.9666 24.9046L86.2944 24.0279L85.5769 23.1771L84.8185 22.3529L84.0231 21.5554L83.1953 20.7854L82.3394 20.0429L81.4597 19.3281L80.5609 18.6417L79.6474 17.984L78.7235 17.355L77.7941 16.7549L76.8633 16.1843L75.9358 15.643L75.0161 15.1315L74.1086 14.6499L73.218 14.1982L72.3486 13.7766L71.5052 13.3855L70.6922 13.025L69.914 12.6951L69.1756 12.396L68.4818 12.1279L69.0905 10.5163L69.8114 10.7946L70.5758 11.1044L71.3795 11.4452L72.2186 11.8174L73.0886 12.2208L73.9852 12.6555L74.904 13.1213L75.8407 13.6185L76.7907 14.147L77.7497 14.7067L78.7136 15.2976L79.6777 15.92L80.6378 16.5737L81.5892 17.2589L82.5279 17.9757L83.4492 18.7244L84.3488 19.5047L85.2221 20.3172L86.0646 21.162L86.8718 22.0393L87.6391 22.949L88.3619 23.8919L89.0352 24.8678L89.6544 25.8772L90.2145 26.92L90.7102 27.9963L91.1366 29.1058L91.4884 30.2481L91.7607 31.4226L91.948 32.6289L92.0459 33.8655L92.0492 35.1309L90.3255 35.0701ZM54.2887 66.8123L54.3633 65.5149L54.6649 64.2857L55.1734 63.1355L55.8646 62.0655L56.7157 61.07L57.7075 60.1391L58.8244 59.2619L60.0529 58.4284L61.3806 57.63L62.7951 56.8588L64.2843 56.1076L65.836 55.3695L67.4376 54.6387L69.0766 53.9089L70.7403 53.1745L72.4157 52.4298L74.0898 51.6695L75.7496 50.888L77.3819 50.0803L78.9736 49.2413L80.5114 48.3661L81.9819 47.4503L83.3719 46.4893L84.6688 45.4788L85.8598 44.4154L86.9333 43.2949L87.8779 42.1138L88.6836 40.8666L89.341 39.5474L89.8408 38.1486L90.173 36.66L90.3255 35.0701L92.0492 35.1309L91.8768 36.9277L91.4983 38.6248L90.9284 40.2212L90.1825 41.7184L89.278 43.1196L88.2313 44.4294L87.0583 45.6544L85.7742 46.8012L84.3932 47.8772L82.9291 48.8897L81.3947 49.8457L79.8031 50.7515L78.1675 51.614L76.5003 52.4389L74.8146 53.2325L73.1234 54.0008L71.4395 54.7491L69.7764 55.4832L68.1472 56.2086L66.5649 56.9306L65.0437 57.6541L63.5967 58.384L62.238 59.1246L60.9815 59.8799L59.8412 60.6532L58.8302 61.4465L57.9618 62.2609L57.2462 63.0968L56.6902 63.9552L56.2973 64.8416L56.0694 65.7681L56.0126 66.7567L54.2887 66.8123ZM26.1499 70.4508L27.6878 71.6612L29.2004 72.7612L30.6862 73.7533L32.1427 74.6397L33.5681 75.423L34.9605 76.1054L36.3177 76.6896L37.6377 77.1781L38.9186 77.5734L40.1582 77.8781L41.3549 78.0952L42.5066 78.2274L43.6116 78.2774L44.6684 78.2485L45.6755 78.1434L46.6317 77.9649L47.5359 77.7163L48.3874 77.3998L49.1857 77.0182L49.93 76.5734L50.62 76.0676L51.2555 75.502L51.8351 74.8781L52.3582 74.1966L52.8232 73.4589L53.2288 72.6656L53.5727 71.8181L53.853 70.9171L54.0671 69.9645L54.2128 68.9615L54.2874 67.9102L54.2887 66.8123L56.0126 66.7567L56.0111 67.9712L55.9277 69.1453L55.7634 70.2759L55.5195 71.3606L55.1973 72.3966L54.7978 73.3808L54.323 74.3098L53.7741 75.1803L53.1533 75.9889L52.4628 76.7322L51.7052 77.4064L50.8836 78.0088L50.001 78.5361L49.0605 78.9857L48.0652 79.3557L47.0183 79.6437L45.9227 79.8482L44.7807 79.9675L43.5948 80L42.3677 79.9443L41.101 79.799L39.7967 79.5624L38.4565 79.2329L37.0823 78.8088L35.6756 78.2884L34.2381 77.6697L32.7714 76.9507L31.2772 76.1296L29.7572 75.2046L28.2127 74.1733L26.6457 73.0337L25.0576 71.7839L26.1499 70.4508ZM7.99511 26.0664L7.75101 27.5773L7.55074 29.0795L7.39508 30.5728L7.28492 32.0575L7.22105 33.5334L7.20425 35.0006L7.23527 36.4595L7.31505 37.9095L7.44421 39.3513L7.62392 40.7847L7.85457 42.21L8.13732 43.6273L8.47283 45.0364L8.86225 46.4379L9.30623 47.8317L9.80593 49.2183L10.362 50.5971L10.9756 51.9689L11.6475 53.3336L12.379 54.6912L13.1709 56.042L14.0242 57.3857L14.9397 58.7228L15.9188 60.053L16.9622 61.3765L18.071 62.6934L19.2458 64.0032L20.4883 65.3064L21.7989 66.6029L23.1788 67.8924L24.6288 69.175L26.1499 70.4508L25.0576 71.7839L23.5024 70.4796L22.0178 69.1664L20.603 67.8439L19.2569 66.5127L17.9791 65.1722L16.7685 63.8227L15.6246 62.4639L14.5463 61.0964L13.5331 59.7194L12.584 58.3336L11.6983 56.9386L10.8754 55.5348L10.1142 54.1221L9.41405 52.7006L8.77433 51.2704L8.19421 49.8318L7.67279 48.3848L7.20916 46.9295L6.80267 45.4662L6.45217 43.9949L6.15726 42.5158L5.91653 41.0292L5.72932 39.5351L5.59473 38.0336L5.51185 36.5249L5.47953 35.0091L5.49686 33.4863L5.56305 31.9566L5.67708 30.4199L5.83792 28.8765L6.04465 27.3263L6.29625 25.7691L7.99511 26.0664ZM68.4818 12.1279L66.4004 11.4015L64.2416 10.7591L62.014 10.1998L59.7266 9.7232L57.3885 9.32879L55.009 9.01557L52.5967 8.78304L50.1609 8.63042L47.7105 8.55656L45.2546 8.56106L42.8022 8.64278L40.3622 8.80067L37.9439 9.0341L35.556 9.34179L33.2077 9.72282L30.9081 10.1763L28.6661 10.7008L26.4909 11.2955L24.3917 11.959L22.3772 12.6899L20.4568 13.4868L18.6397 14.3482L16.9348 15.2724L15.351 16.2572L13.8973 17.3009L12.5818 18.4006L11.4129 19.5541L10.3977 20.7589L9.5427 22.0127L8.85384 23.3148L8.33604 24.665L7.99511 26.0664L6.29625 25.7691L6.68942 24.1529L7.28324 22.6026L8.06544 21.1235L9.02386 19.7173L10.1463 18.3846L11.422 17.1256L12.8405 15.9394L14.3922 14.8255L16.068 13.7833L17.8588 12.8123L19.7565 11.9128L21.7522 11.0844L23.8373 10.3278L26.0033 9.64316L28.242 9.03127L30.5445 8.49234L32.9026 8.02754L35.3075 7.63724L37.7507 7.32235L40.2236 7.08377L42.7176 6.92228L45.2244 6.83876L47.7348 6.83426L50.2408 6.90967L52.7335 7.06589L55.2045 7.30408L57.6448 7.62527L60.0462 8.0305L62.4003 8.52104L64.698 9.09806L66.931 9.76258L69.0905 10.5163L68.4818 12.1279Z" fill="white"/>
<path d="M68.7861 11.3221C76.081 14.0704 91.6459 22.1449 91.1874 35.1005C90.5285 53.7193 54.7441 54.2265 55.1507 66.7845C55.5568 79.3427 42.3917 84.8349 25.6037 71.1174C8.8157 57.3998 4.26796 42.3217 7.14568 25.9178C10.0236 9.51358 46.6026 2.96461 68.7861 11.3221Z" fill="url(#paint0_linear_5_18)"/>
<mask id="mask0_5_18" style="mask-type:luminance" maskUnits="userSpaceOnUse" x="6" y="7" width="86" height="73">
<path d="M68.7861 11.3221C76.081 14.0704 91.6459 22.1449 91.1874 35.1005C90.5285 53.7193 54.7441 54.2265 55.1507 66.7845C55.5568 79.3427 42.3917 84.8349 25.6037 71.1174C8.8157 57.3998 4.26796 42.3217 7.14568 25.9178C10.0236 9.51358 46.6026 2.96461 68.7861 11.3221Z" fill="white"/>
</mask>
<g mask="url(#mask0_5_18)">
<path d="M4.07481 59.2126V24.7433C4.07481 23.938 4.35459 23.2494 4.91415 22.6851C5.47371 22.1207 6.15636 21.8385 6.96157 21.8385H17.4578C20.4471 21.8385 22.6649 22.4855 24.105 23.7727C25.5995 25.115 26.3501 27.0836 26.3501 29.665C26.3501 31.3788 25.9749 32.8039 25.2242 33.9395C24.5828 35.0134 23.5589 35.7911 22.1666 36.2729C23.3952 36.7066 24.2483 37.3536 24.7327 38.2141C25.2103 39.0196 25.5039 40.3893 25.6131 42.3305L25.7701 45.6345C25.7701 45.9579 25.7701 46.3091 25.7701 46.6877C25.7701 47.0663 25.7973 47.4104 25.852 47.7339C26.0157 48.7045 26.3297 49.324 26.8143 49.5925H20.5629C20.2968 49.0556 20.133 48.4911 20.0783 47.8991C19.9761 47.0318 19.9215 46.4397 19.9215 46.1232L19.8394 43.1288C19.7304 41.5182 19.4165 40.3619 18.8774 39.6598C18.2971 39.0677 17.2531 38.7718 15.7652 38.7718H9.7665V59.2126H4.07481ZM9.7665 33.9395H16.4135C17.8537 33.9395 18.9251 33.6437 19.6144 33.0516C20.3104 32.4595 20.6584 31.5441 20.6584 30.3051C20.6584 29.0661 20.3104 28.1506 19.6144 27.5586C18.9796 26.9116 18.0175 26.5881 16.7344 26.5881H9.7665V33.9395ZM41.883 42.9843H45.8823C45.2954 45.2422 44.1761 46.9629 42.5246 48.147C40.8729 49.3859 38.7914 50.0054 36.2869 50.0054C33.2499 50.0054 30.8681 49.0075 29.1619 47.0181C27.449 45.0838 26.5959 42.3166 26.5959 38.7098C26.5959 35.268 27.4217 32.5835 29.0802 30.6493C30.7931 28.66 33.1681 27.6618 36.2051 27.6618C39.4056 27.6618 41.883 28.6255 43.6438 30.5598C45.3498 32.5423 46.2029 35.3094 46.2029 38.8543C46.2029 39.0677 46.2029 39.2536 46.2029 39.4118C46.2029 39.577 46.2029 39.6802 46.2029 39.7354C46.2029 40.0039 46.1757 40.1898 46.1211 40.2998H32.2877C32.3422 41.9793 32.7382 43.2252 33.4888 44.0374C34.1779 44.9048 35.2222 45.3386 36.6078 45.3386C37.5153 45.3386 38.2864 45.1457 38.9279 44.7672C39.085 44.7191 39.2351 44.6227 39.3648 44.485C39.5012 44.3541 39.6444 44.2027 39.8083 44.0374C39.8561 43.8793 40.0608 43.6589 40.4019 43.3904C40.7501 43.122 41.2484 42.9843 41.883 42.9843ZM32.2877 36.6654H40.443C40.3408 35.2198 39.9653 34.1462 39.3239 33.4509C38.6345 32.7006 37.645 32.3289 36.3689 32.3289C35.1949 32.3289 34.2328 32.7006 33.4888 33.4509C32.7382 34.2011 32.3422 35.275 32.2877 36.6654ZM62.6979 42.9843H66.697C66.1101 45.2422 64.991 46.9629 63.3395 48.147C61.6878 49.3859 59.6062 50.0054 57.1015 50.0054C54.0579 50.0054 51.6897 49.0075 49.9836 47.0181C48.2775 45.0838 47.4244 42.3166 47.4244 38.7098C47.4244 35.268 48.2503 32.5835 49.9017 30.6493C51.608 28.66 53.9828 27.6618 57.0198 27.6618C60.2205 27.6618 62.6979 28.6325 64.4586 30.5666C65.414 31.7507 66.1101 33.1204 66.5333 34.6829H60.937C60.6709 34.1391 60.4047 33.733 60.1386 33.4646C59.4426 32.7075 58.4597 32.3289 57.1766 32.3289C56.0098 32.3289 55.0475 32.7075 54.3034 33.4577C53.3414 34.5384 52.8637 36.3144 52.8637 38.7923C52.8637 41.2705 53.3414 43.0188 54.3034 44.0445C54.9928 44.9048 56.0302 45.3386 57.4224 45.3386C58.3234 45.3386 59.1012 45.1457 59.7359 44.7672C59.8998 44.7191 60.0431 44.6227 60.1796 44.485C60.3092 44.3541 60.4593 44.2027 60.6162 44.0374C60.7255 43.8793 60.937 43.6589 61.2579 43.3904C61.5785 43.122 62.0563 42.9843 62.6979 42.9843ZM80.9537 34.1874C80.1483 33.0584 79.0563 32.4941 77.671 32.4941C76.1763 32.4941 75.023 33.0309 74.2246 34.1047C73.4261 35.1786 73.0233 36.6585 73.0233 38.5446V49.5925H67.5774V17.3915H70.3005C71.051 17.3915 71.6875 17.6582 72.225 18.1968C72.7589 18.7318 73.0233 19.3809 73.0233 20.138V30.9521C73.9856 29.3414 75.3437 28.3227 77.1113 27.8891C78.872 27.4624 80.5509 27.5656 82.1546 28.2126C83.6492 28.8596 84.905 29.8784 85.915 31.2756C86.9318 32.6798 87.437 34.6141 87.437 37.0852V49.5925H82.0728V38.462C82.0728 37.6565 82.0045 36.9131 81.8748 36.2455C81.7384 35.571 81.4314 34.8825 80.9537 34.1874Z" fill="#D04434"/>
</g>
<path d="M3.05575 41.5632V23.7854C3.05575 22.9801 3.33553 22.2916 3.89509 21.7272C4.45491 21.1628 5.1373 20.8806 5.94251 20.8806H16.4387C19.428 20.8806 21.6458 21.5276 23.086 22.8148C24.5804 24.1571 25.3311 26.1257 25.3311 28.7071C25.3311 30.4209 24.9559 31.846 24.2051 32.9816C23.5637 34.0555 22.5399 34.8332 21.1477 35.315C22.3762 35.7487 23.2292 36.3957 23.7137 37.2562C24.1914 38.0616 24.4849 39.4313 24.594 41.3725L24.7511 44.6766C24.7511 45 24.7511 45.3511 24.7511 45.7298C24.7511 46.1084 24.7782 46.4525 24.8329 46.776C24.9966 47.7465 25.3107 48.3661 25.7952 48.6345H19.544C19.2778 48.0977 19.114 47.5331 19.0593 46.9411C18.957 46.0739 18.9024 45.4818 18.9024 45.1652L18.8203 42.1709C18.7114 40.5603 18.3974 39.4038 17.8583 38.7018C17.2781 38.1098 16.2342 37.8138 14.7462 37.8138H8.74744C8.74744 41.0499 8.74744 45.6087 8.74744 48.8447C6.69536 47.1522 4.74064 43.9532 3.05575 41.5632ZM8.74744 32.9816H15.3944C16.8346 32.9816 17.906 32.6856 18.5954 32.0937C19.2913 31.5016 19.6394 30.5862 19.6394 29.3471C19.6394 28.1082 19.2913 27.1926 18.5954 26.6007C17.9607 25.9537 16.9984 25.63 15.7153 25.63H8.74744V32.9816ZM40.864 42.0264H44.8633C44.2763 44.2843 43.1571 46.005 41.5055 47.189C39.854 48.428 37.7723 49.0475 35.2678 49.0475C32.2308 49.0475 29.8491 48.0495 28.1429 46.0602C26.4299 44.1259 25.5769 41.3586 25.5769 37.7518C25.5769 34.31 26.4026 31.6255 28.0611 29.6914C29.7741 27.7021 32.149 26.7039 35.186 26.7039C38.3866 26.7039 40.864 27.6676 42.6249 29.6019C44.3307 31.5844 45.1838 34.3514 45.1838 37.8964C45.1838 38.1098 45.1838 38.2957 45.1838 38.4539C45.1838 38.6191 45.1838 38.7223 45.1838 38.7775C45.1838 39.0459 45.1566 39.2318 45.1021 39.3418H31.2687C31.3231 41.0214 31.7191 42.2673 32.4698 43.0795C33.1589 43.9469 34.2031 44.3806 35.5887 44.3806C36.4962 44.3806 37.2673 44.1877 37.909 43.8093C38.0659 43.761 38.216 43.6648 38.3457 43.527C38.4821 43.3961 38.6253 43.2448 38.7893 43.0795C38.837 42.9214 39.0418 42.7009 39.383 42.4325C39.7312 42.1641 40.2293 42.0264 40.864 42.0264ZM31.2687 35.7075H39.424C39.3217 34.2619 38.9462 33.1881 38.3048 32.493C37.6155 31.7425 36.6259 31.3709 35.3498 31.3709C34.1759 31.3709 33.2137 31.7425 32.4698 32.493C31.7191 33.2432 31.3231 34.3171 31.2687 35.7075ZM61.6789 42.0264H65.678C65.0911 44.2843 63.9719 46.005 62.3204 47.189C60.6687 48.428 58.5872 49.0475 56.0826 49.0475C53.0389 49.0475 50.6707 48.0495 48.9646 46.0602C47.2585 44.1259 46.4053 41.3586 46.4053 37.7518C46.4053 34.31 47.2312 31.6255 48.8827 29.6914C50.589 27.7021 52.9638 26.7039 56.0008 26.7039C59.2014 26.7039 61.6789 27.6746 63.4395 29.6087C64.395 30.7927 65.0911 32.1625 65.5142 33.725H59.918C59.6519 33.1812 59.3857 32.7751 59.1196 32.5066C58.4235 31.7496 57.4406 31.3709 56.1576 31.3709C54.9908 31.3709 54.0284 31.7496 53.2845 32.4998C52.3223 33.5805 51.8446 35.3563 51.8446 37.8344C51.8446 40.3124 52.3223 42.0609 53.2845 43.0866C53.9738 43.9469 55.0112 44.3806 56.4034 44.3806C57.3044 44.3806 58.0822 44.1877 58.7169 43.8093C58.8808 43.761 59.0241 43.6648 59.1606 43.527C59.2901 43.3961 59.4402 43.2448 59.5973 43.0795C59.7066 42.9214 59.918 42.7009 60.2388 42.4325C60.5596 42.1641 61.0372 42.0264 61.6789 42.0264ZM79.9346 33.2293C79.1293 32.1005 78.0373 31.5361 76.652 31.5361C75.1572 31.5361 74.004 32.073 73.2056 33.1468C72.407 34.2207 72.0044 35.7006 72.0044 37.5865V48.6345H66.5584V16.1612H69.2815C70.032 16.1612 70.6685 16.4281 71.2059 16.9667C71.7399 17.5017 72.0044 18.1507 72.0044 18.9079V29.9942C72.9666 28.3835 74.3248 27.3648 76.0923 26.9312C77.8531 26.5043 79.532 26.6075 81.1357 27.2545C82.6301 27.9017 83.8859 28.9205 84.8961 30.3177C85.9128 31.7219 86.4179 33.6565 86.4179 36.1273C86.4179 39.1095 86.4179 42.092 86.4179 45.0743C85.0402 46.8917 83.2025 48.1638 81.0537 49.0458V37.5041C81.0537 36.6986 80.9878 35.9546 80.8558 35.2875C80.7221 34.6127 80.4123 33.9246 79.9346 33.2293Z" fill="white"/>
<path d="M153.696 42.1497V30.3818H150.141V26.6078C151.583 26.4965 152.847 25.8412 153.946 24.6618C155.045 23.476 156.053 21.6478 156.968 19.1777H159.542V24.7601H166.375V30.3818H159.542V40.2494C159.542 42.0906 159.752 43.3225 160.18 43.9514C160.608 44.5739 161.352 44.8884 162.425 44.8884C163.169 44.8884 163.847 44.6984 164.453 44.3118C165.058 43.9318 165.598 43.3486 166.059 42.569V47.2866C165.414 48.0793 164.597 48.6756 163.61 49.0817C162.622 49.4815 161.49 49.6846 160.213 49.6846C158.001 49.6846 156.362 49.0687 155.296 47.8368C154.229 46.5985 153.696 44.7049 153.696 42.1497Z" stroke="white" stroke-width="2.41134" stroke-miterlimit="2.61313"/>
<path d="M153.696 42.1497V30.3818H150.141V26.6078C151.583 26.4965 152.847 25.8412 153.946 24.6618C155.045 23.476 156.053 21.6478 156.968 19.1777H159.542V24.7601H166.375V30.3818H159.542V40.2494C159.542 42.0906 159.752 43.3225 160.18 43.9514C160.608 44.5739 161.352 44.8884 162.425 44.8884C163.169 44.8884 163.847 44.6984 164.453 44.3118C165.058 43.9318 165.598 43.3486 166.059 42.569V47.2866C165.414 48.0793 164.597 48.6756 163.61 49.0817C162.622 49.4815 161.49 49.6846 160.213 49.6846C158.001 49.6846 156.362 49.0687 155.296 47.8368C154.229 46.5985 153.696 44.7049 153.696 42.1497Z" fill="#0098DB"/>
<path d="M134.233 40.6426C135.135 42.0513 136.142 43.1127 137.268 43.8205C138.393 44.5346 139.618 44.8884 140.941 44.8884C142.034 44.8884 142.922 44.6263 143.62 44.1022C144.311 43.578 144.66 42.9097 144.66 42.1037C144.66 41.4747 144.463 40.9768 144.074 40.6098C143.679 40.2363 142.797 39.8104 141.421 39.3387C138.268 38.3034 136.181 37.2552 135.181 36.2068C134.18 35.1584 133.68 33.7236 133.68 31.9019C133.68 29.5367 134.463 27.6102 136.023 26.1229C137.583 24.6357 139.618 23.8953 142.126 23.8953C143.528 23.8953 144.792 24.1246 145.924 24.5766C147.05 25.0353 148.097 25.7365 149.044 26.6864V32.8586C148.143 31.6268 147.175 30.7096 146.135 30.1067C145.095 29.5039 143.956 29.2025 142.718 29.2025C141.678 29.2025 140.835 29.445 140.184 29.9232C139.532 30.4015 139.209 31.0175 139.209 31.7578C139.209 32.4131 139.453 32.9438 139.934 33.3566C140.414 33.7627 141.316 34.1691 142.639 34.5622C145.378 35.3549 147.234 36.2659 148.208 37.2879C149.189 38.31 149.676 39.7449 149.676 41.586C149.676 44.0431 148.919 46.0089 147.412 47.4765C145.898 48.9508 143.87 49.6846 141.329 49.6846C139.914 49.6846 138.577 49.4356 137.32 48.9443C136.056 48.4528 135.029 47.7845 134.233 46.9393V40.6426Z" stroke="white" stroke-width="2.41134" stroke-miterlimit="2.61313"/>
<path d="M134.233 40.6426C135.135 42.0513 136.142 43.1127 137.268 43.8205C138.393 44.5346 139.618 44.8884 140.941 44.8884C142.034 44.8884 142.922 44.6263 143.62 44.1022C144.311 43.578 144.66 42.9097 144.66 42.1037C144.66 41.4747 144.463 40.9768 144.074 40.6098C143.679 40.2363 142.797 39.8104 141.421 39.3387C138.268 38.3034 136.181 37.2552 135.181 36.2068C134.18 35.1584 133.68 33.7236 133.68 31.9019C133.68 29.5367 134.463 27.6102 136.023 26.1229C137.583 24.6357 139.618 23.8953 142.126 23.8953C143.528 23.8953 144.792 24.1246 145.924 24.5766C147.05 25.0353 148.097 25.7365 149.044 26.6864V32.8586C148.143 31.6268 147.175 30.7096 146.135 30.1067C145.095 29.5039 143.956 29.2025 142.718 29.2025C141.678 29.2025 140.835 29.445 140.184 29.9232C139.532 30.4015 139.209 31.0175 139.209 31.7578C139.209 32.4131 139.453 32.9438 139.934 33.3566C140.414 33.7627 141.316 34.1691 142.639 34.5622C145.378 35.3549 147.234 36.2659 148.208 37.2879C149.189 38.31 149.676 39.7449 149.676 41.586C149.676 44.0431 148.919 46.0089 147.412 47.4765C145.898 48.9508 143.87 49.6846 141.329 49.6846C139.914 49.6846 138.577 49.4356 137.32 48.9443C136.056 48.4528 135.029 47.7845 134.233 46.9393V40.6426Z" fill="#0098DB"/>
<path d="M131.003 48.8591H125.118V24.6423C125.737 24.8452 126.283 24.9959 126.757 25.0942C127.231 25.1859 127.679 25.2385 128.087 25.2385C128.475 25.2385 128.903 25.1925 129.364 25.1008C129.825 25.0156 130.371 24.8583 131.003 24.6423V48.8591Z" stroke="white" stroke-width="2.41134" stroke-miterlimit="2.61313"/>
<path d="M131.003 48.8591H125.118V24.6423C125.737 24.8452 126.283 24.9959 126.757 25.0942C127.231 25.1859 127.679 25.2385 128.087 25.2385C128.475 25.2385 128.903 25.1925 129.364 25.1008C129.825 25.0156 130.371 24.8583 131.003 24.6423V48.8591Z" fill="#0098DB"/>
<path d="M121.77 48.8591H115.884V19.1777H121.77V48.8591Z" stroke="white" stroke-width="2.41134" stroke-miterlimit="2.61313"/>
<path d="M121.77 48.8591H115.884V19.1777H121.77V48.8591Z" fill="#0098DB"/>
<path d="M93.9393 48.8591V19.6495H112.227V25.3891H99.6666V31.3647H112.227V36.8292H99.6666V43.3945H112.227V48.8591H93.9393Z" stroke="white" stroke-width="2.41134" stroke-miterlimit="2.61313"/>
<path d="M93.9393 48.8591V19.6495H112.227V25.3891H99.6666V31.3647H112.227V36.8292H99.6666V43.3945H112.227V48.8591H93.9393Z" fill="#0098DB"/>
<path d="M76.4095 60.6743H77.8118V58.5568H79.3573C80.7787 58.5568 81.8282 57.6454 81.8282 56.354C81.8282 55.0627 80.7787 54.1511 79.3573 54.1511H76.4095V60.6743ZM77.8118 57.275V55.433H79.2046C79.9011 55.433 80.3781 55.7937 80.3781 56.354C80.3781 56.9142 79.9011 57.275 79.2046 57.275H77.8118ZM87.0941 54.1511V56.7148H84.108V54.1511H82.7058V60.6743H84.108V57.9776H87.0941V60.6743H88.4964V54.1511H87.0941ZM94.6019 60.6743H96.1856L93.5143 54.1511H91.9404L89.2691 60.6743H90.8432L91.263 59.6488H94.1822L94.6019 60.6743ZM91.7495 58.462L92.7226 56.0786L93.6956 58.462H91.7495ZM102.501 60.6743L100.889 58.3954C101.785 58.0821 102.377 57.3225 102.377 56.354C102.377 55.0627 101.328 54.1511 99.9061 54.1511H96.9583V60.6743H98.3606V58.5568H99.4005L100.898 60.6743H102.501ZM98.3606 55.433H99.7534C100.45 55.433 100.927 55.7937 100.927 56.354C100.927 56.9142 100.45 57.275 99.7534 57.275H98.3606V55.433ZM103.484 60.6743H104.886V56.6103L106.918 60.2946L108.94 56.6103V60.6743H110.352V54.1511H108.94L106.918 57.8353L104.886 54.1511H103.484V60.6743ZM116.505 60.6743H118.089L115.418 54.1511H113.844L111.173 60.6743H112.747L113.167 59.6488H116.086L116.505 60.6743ZM113.653 58.462L114.626 56.0786L115.599 58.462H113.653ZM121.523 60.6743H122.926V58.5568H124.471C125.893 58.5568 126.942 57.6454 126.942 56.354C126.942 55.0627 125.893 54.1511 124.471 54.1511H121.523V60.6743ZM122.926 57.275V55.433H124.319C125.015 55.433 125.492 55.7937 125.492 56.354C125.492 56.9142 125.015 57.275 124.319 57.275H122.926ZM132.637 54.1511L130.758 58.7468L128.879 54.1511H127.295L129.966 60.6743H131.54L134.211 54.1511H132.637ZM136.682 60.6743H138.094V55.414H140.136V54.1511H134.641V55.414H136.682V60.6743ZM141.834 60.7882C142.301 60.7882 142.683 60.3894 142.683 59.9052C142.683 59.4589 142.301 59.0601 141.834 59.0601C141.338 59.0601 140.946 59.4589 140.946 59.9052C140.946 60.3894 141.338 60.7882 141.834 60.7882ZM147.872 59.4114V54.1511H146.461V60.6743H151.135V59.4114H147.872ZM153.739 60.6743H155.151V55.414H157.193V54.1511H151.698V55.414H153.739V60.6743ZM158.194 60.6743H160.541C162.745 60.6743 164.31 59.3164 164.31 57.4079C164.31 55.4994 162.745 54.1511 160.541 54.1511H158.194V60.6743ZM159.597 59.402V55.4235H160.723C161.972 55.4235 162.86 56.2495 162.86 57.4079C162.86 58.5759 161.972 59.402 160.723 59.402H159.597ZM166.151 60.7882C166.618 60.7882 167 60.3894 167 59.9052C167 59.4589 166.618 59.0601 166.151 59.0601C165.655 59.0601 165.264 59.4589 165.264 59.9052C165.264 60.3894 165.655 60.7882 166.151 60.7882Z" fill="#0098DB"/>
<path fill-rule="evenodd" clip-rule="evenodd" d="M128.126 16.5676C129.776 16.5676 131.114 17.8994 131.114 19.5419C131.114 21.1845 129.776 22.5162 128.126 22.5162C126.476 22.5162 125.138 21.1845 125.138 19.5419C125.138 17.8994 126.476 16.5676 128.126 16.5676ZM141.135 12.0234C139.456 12.0234 138.003 12.9856 137.303 14.3861C136.472 16.0465 136.734 16.2841 135.666 16.751C134.952 17.0632 134.399 17.1869 133.625 17.2807C132.886 17.3701 132.106 17.329 131.535 16.669C131.267 16.3576 131.236 16.0055 131.301 15.6513C131.424 14.971 131.69 14.5407 132.245 14.1201C132.672 13.7964 132.842 14.0004 133.943 13.5768C134.796 13.2487 135.4 12.4247 135.4 11.4602C135.4 10.2072 134.38 9.19148 133.121 9.19148C131.862 9.19148 130.842 10.2104 130.842 11.4602C130.842 12.5589 131.077 12.7529 131.136 13.0569C131.277 13.7743 130.675 14.6752 130.022 15.0111C129.655 15.1998 129.282 15.2579 128.775 15.2756C128.563 15.244 128.347 15.2275 128.126 15.2275C125.732 15.2275 123.792 17.1592 123.792 19.5419C123.792 21.9247 125.732 23.8565 128.126 23.8565C130.005 23.8565 131.605 22.6661 132.206 21.0018C133.043 19.3508 134.276 18.3864 136.208 18.4279C136.998 18.4449 137.515 18.8156 138.381 19.5418C139.126 20.1651 140.086 20.5406 141.135 20.5406C143.498 20.5406 145.414 18.634 145.414 16.2821C145.414 13.9301 143.498 12.0234 141.135 12.0234Z" fill="#F26C36"/>
<defs>
<linearGradient id="paint0_linear_5_18" x1="37.3853" y1="62.0152" x2="84.6194" y2="26.5096" gradientUnits="userSpaceOnUse">
<stop stop-color="#F16237"/>
<stop offset="0.588235" stop-color="#F89734"/>
<stop offset="0.839216" stop-color="#FDBA2F"/>
<stop offset="1" stop-color="#FFD527"/>
</linearGradient>
</defs>
</svg>
