<svg width="80" height="80" viewBox="0 0 80 80" fill="none" xmlns="http://www.w3.org/2000/svg">
<path d="M50.3949 46.8456C51.5241 47.8633 51.5139 49.6456 50.3595 50.6279C50.3544 50.6329 50.3443 50.6431 50.3392 50.6481C47.9949 52.6228 46.476 55.4076 45.9747 58.4304L43.0127 76.1266L37.2405 75.3469L40.6177 55.2051C40.9722 53.0734 40.4051 50.876 39.0076 49.2304C38.243 48.3342 37.8835 47.1038 38.1367 45.8481C38.5468 43.8279 40.4658 42.4456 42.5165 42.6937C43.1038 42.7646 43.6405 42.957 44.1063 43.2456C44.7038 43.6101 45.3823 43.7975 46.0658 43.8025C46.6937 43.8076 47.2962 44.0557 47.762 44.476L50.3949 46.8456Z" fill="#FFF4F0"/>
<path d="M56.8202 38.5266C57.7468 39.7367 56.8202 41.4734 55.3012 41.3721L50.6734 41.0683C49.3266 40.9822 48.5671 39.4784 49.2962 38.3443L51.3012 35.2303C51.9645 34.1974 53.4481 34.1367 54.1974 35.1088C54.9823 36.1367 55.9493 37.3924 56.8202 38.5266Z" fill="#FFF4F0"/>
<path d="M47.5342 25.2203C49.3266 26.4911 49.8532 28.957 48.7392 30.8506C48.4709 31.3013 48.1367 31.6861 47.757 31.9949C46.8304 32.7494 46.1772 33.7823 45.8937 34.9418C45.7772 35.4228 45.5747 35.8886 45.281 36.3241C44.0506 38.1468 41.6 38.7291 39.681 37.6557C38.5013 36.9924 37.762 35.8633 37.5595 34.638C37.1696 32.2886 35.838 30.2025 33.8228 28.9316L11.4076 14.6785L14.8911 9.65063L38.3797 24.4658C39.8734 25.4076 41.7316 25.5139 43.3519 24.8C44.6734 24.2177 46.2582 24.3139 47.5342 25.2203Z" fill="#FFF4F0"/>
<path d="M52.6734 22.3544C59.5241 26.5468 63.0279 34.5671 61.4481 42.4456L54.3949 77.6709L43.0076 76.1316L45.9696 58.4354C46.4709 55.4126 47.9899 52.6228 50.3342 50.6532C50.3443 50.6481 50.3494 50.638 50.3544 50.6329C51.5089 49.6456 51.519 47.8633 50.3899 46.8506L47.7519 44.481C47.2861 44.0607 46.6835 43.8126 46.0557 43.8076C45.3671 43.8025 44.6937 43.6152 44.0962 43.2506C43.6253 42.9671 43.0886 42.7747 42.5063 42.6987C40.4608 42.4506 38.5367 43.8278 38.1266 45.8532C37.8684 47.1088 38.2329 48.3342 38.9975 49.2354C40.3949 50.881 40.962 53.0785 40.6076 55.2101L37.2304 75.3519L27.4987 74.0354C27.4987 74.0354 31.7772 61.3468 30.4506 54.562C29.1241 47.7772 34.0658 40.0658 34.0658 40.0658C14.0051 31.8025 6.18735 22.2177 6.18735 22.2177L11.4127 14.6785L33.8228 28.9316C35.838 30.2025 37.1646 32.2886 37.5595 34.638C37.762 35.8633 38.4962 36.9924 39.681 37.6557C41.6 38.7291 44.0506 38.1468 45.281 36.324C45.5747 35.8886 45.7772 35.4228 45.8937 34.9418C46.1772 33.7772 46.8253 32.7443 47.757 31.9949C48.1418 31.6861 48.476 31.3013 48.7392 30.8506C49.8582 28.9569 49.3316 26.4911 47.5342 25.2202C46.2532 24.3139 44.6684 24.2177 43.3519 24.8C41.7367 25.5139 39.8734 25.4076 38.3798 24.4658L14.8962 9.64556L19.9646 2.3291L52.6734 22.3544ZM55.2962 41.3721C56.8152 41.4734 57.7468 39.7316 56.8152 38.5266C55.9443 37.3924 54.9823 36.1367 54.1924 35.1088C53.443 34.1367 51.9595 34.1975 51.2962 35.2304L49.2911 38.3443C48.562 39.4785 49.3215 40.9823 50.6684 41.0734L55.2962 41.3721Z" fill="#FFC4B0"/>
<path d="M41.7367 39.4026C40.8304 39.4026 39.919 39.1798 39.0886 38.714C37.6304 37.8988 36.638 36.4861 36.3646 34.8406C36.0253 32.8051 34.8658 31.0279 33.1797 29.9596L10.7595 15.7013C10.1924 15.3418 10.0253 14.5874 10.3848 14.0254C10.7443 13.4583 11.4987 13.2912 12.0608 13.6507L34.476 27.9039C36.7443 29.3368 38.3038 31.7165 38.7595 34.4355C38.9114 35.352 39.4633 36.1368 40.2785 36.5925C41.6456 37.357 43.3975 36.9418 44.2734 35.6406C44.481 35.3368 44.6278 35.0026 44.7139 34.6532C45.0582 33.2203 45.8481 31.9748 46.9924 31.0482C47.2709 30.8203 47.5089 30.5469 47.6962 30.2279C48.4911 28.8811 48.1165 27.114 46.8405 26.2077C45.9595 25.5849 44.8405 25.4684 43.8532 25.9039C41.843 26.7899 39.5595 26.633 37.7418 25.4836L14.2481 10.6735C13.681 10.314 13.5089 9.56462 13.8684 8.99753C14.2279 8.43044 14.9772 8.25829 15.5443 8.61779L39.0329 23.433C40.1671 24.1469 41.6 24.2431 42.8658 23.6861C44.643 22.9013 46.6532 23.1039 48.238 24.2279C49.357 25.0178 50.1316 26.1975 50.4203 27.5444C50.7089 28.8912 50.4861 30.2836 49.7873 31.4634C49.4532 32.0304 49.0278 32.5216 48.5215 32.9317C47.7924 33.5191 47.2962 34.314 47.0734 35.2254C46.9215 35.8583 46.6532 36.4558 46.2886 37.0026C45.2405 38.5469 43.5038 39.4026 41.7367 39.4026Z" fill="#333333"/>
<path d="M43.0127 77.3469C42.9468 77.3469 42.8759 77.3419 42.8101 77.3317C42.1468 77.2203 41.7013 76.5925 41.8127 75.9343L44.7747 58.2381C45.3367 54.871 47.0329 51.8482 49.5544 49.7267L49.5696 49.7115C49.8532 49.4684 50.0152 49.1241 50.0202 48.7495C50.0253 48.3646 49.8734 48.0102 49.5848 47.757L46.9519 45.3874C46.6937 45.1596 46.3797 45.0279 46.0608 45.0279C45.1494 45.0229 44.2532 44.7697 43.4734 44.2938C43.1392 44.0912 42.7646 43.9596 42.3646 43.9089C40.9468 43.7368 39.6101 44.6988 39.3215 46.1014C39.1494 46.9419 39.3721 47.7976 39.924 48.4507C41.5392 50.3545 42.2278 52.8912 41.8076 55.4127L38.4304 75.5596C38.319 76.2229 37.6911 76.6684 37.0329 76.557C36.3696 76.4457 35.924 75.8178 36.0354 75.1596L39.4127 55.0178C39.7164 53.2051 39.2253 51.3824 38.0759 50.0305C37.0329 48.8051 36.6228 47.2001 36.9418 45.6203C37.4785 42.9874 39.9899 41.1748 42.6582 41.5039C43.4025 41.595 44.1013 41.8381 44.7342 42.2229C45.1392 42.471 45.6 42.5976 46.0709 42.6026C46.9823 42.6077 47.8734 42.957 48.5721 43.5849L51.2101 45.9545C52.0101 46.6786 52.4658 47.7064 52.4506 48.7849C52.4354 49.8532 51.9646 50.8608 51.1595 51.5545C51.1494 51.5646 51.1392 51.5748 51.1291 51.5798L51.1342 51.5748C51.1291 51.5798 51.124 51.5798 51.124 51.5849C49.043 53.3368 47.6405 55.8431 47.1747 58.6381L44.2127 76.3343C44.1114 76.9267 43.5949 77.3469 43.0127 77.3469ZM49.5392 49.7368C49.5342 49.7368 49.5342 49.7368 49.5392 49.7368V49.7368ZM49.5392 49.7317C49.5392 49.7368 49.5392 49.7368 49.5392 49.7317V49.7317Z" fill="#333333"/>
<path d="M55.4228 42.5925C55.357 42.5925 55.2861 42.5925 55.2202 42.5874L50.5924 42.2836C49.524 42.2127 48.6025 41.6051 48.1215 40.6481C47.6405 39.6963 47.6962 38.5874 48.2785 37.6861L50.2835 34.5722C50.8101 33.757 51.7013 33.2456 52.6734 33.2051C53.6456 33.1646 54.5772 33.6 55.1696 34.3697C55.9595 35.4026 56.9266 36.6583 57.7924 37.7874C58.5164 38.7292 58.6177 39.9646 58.0557 41.0127C57.519 42 56.5266 42.5925 55.4228 42.5925ZM52.7899 35.6304C52.7797 35.6304 52.7747 35.6304 52.7645 35.6304C52.6582 35.6355 52.4557 35.676 52.319 35.8836L50.3139 38.9975C50.162 39.2304 50.2329 39.4431 50.2835 39.5494C50.3392 39.6557 50.4658 39.838 50.7443 39.8532L55.3721 40.157C55.6962 40.1773 55.8481 39.9595 55.8987 39.8633C55.9494 39.7671 56.0456 39.519 55.8481 39.2608C54.9772 38.1266 54.0152 36.8709 53.2253 35.8431C53.0835 35.6608 52.9013 35.6304 52.7899 35.6304Z" fill="#333333"/>
<path d="M54.4 78.8861C54.3443 78.8861 54.2886 78.8811 54.238 78.876L27.3418 75.2405C26.9823 75.1899 26.6633 74.9874 26.4709 74.6785C26.2785 74.3697 26.238 73.995 26.3544 73.6507C26.4 73.519 30.5114 61.1848 29.2658 54.8C28.6684 51.757 29.1291 48.238 30.6329 44.3342C31.2203 42.8051 31.8582 41.5241 32.3291 40.6532C28.1772 38.8861 24.2532 36.9367 20.643 34.8405C17.4532 32.9924 14.5013 31.0279 11.8684 29.0026C7.34684 25.5241 5.33165 23.0836 5.25063 22.9772C4.90633 22.557 4.88608 21.9646 5.19494 21.519L18.9671 1.63548C19.3367 1.10383 20.0506 0.956998 20.6025 1.29118L53.3114 21.3165C56.8861 23.5038 59.6608 26.6886 61.3367 30.5317C63.0127 34.3697 63.4684 38.5722 62.643 42.6836L55.5899 77.914C55.4734 78.4861 54.9671 78.8861 54.4 78.8861ZM29.0987 73.0228L53.4278 76.314L60.2582 42.2026C61.7316 34.8608 58.4253 27.3013 52.0405 23.3874L20.3089 3.96459L7.73165 22.1165C8.60759 23.0431 10.4608 24.8709 13.4329 27.1443C17.438 30.2076 24.3443 34.7443 34.5266 38.9367C34.8608 39.0735 35.1139 39.3519 35.2253 39.6962C35.3316 40.0405 35.2861 40.4152 35.0886 40.719C35.043 40.7899 30.4253 48.1114 31.6456 54.3291C32.7696 60.0608 30.1823 69.4734 29.0987 73.0228Z" fill="#333333"/>
<path d="M66.9266 32.4507C66.4152 32.4507 65.9443 32.1266 65.7722 31.6203C65.5595 30.9823 65.9038 30.2937 66.5418 30.0811L72.8 27.995C73.438 27.7823 74.1266 28.1266 74.3392 28.7646C74.5519 29.4026 74.2076 30.0912 73.5696 30.3039L67.3114 32.3899C67.1848 32.4304 67.0532 32.4507 66.9266 32.4507Z" fill="#333333"/>
<path d="M64.8608 27.8887C64.5063 27.8887 64.157 27.7368 63.9139 27.438C63.4937 26.9165 63.5747 26.152 64.0962 25.7267L69.2253 21.5798C69.7468 21.1596 70.5114 21.2406 70.9367 21.7621C71.362 22.2836 71.2759 23.0482 70.7544 23.4735L65.6203 27.6203C65.3975 27.8026 65.1291 27.8887 64.8608 27.8887Z" fill="#333333"/>
<path d="M73.8127 38.2734C73.7721 38.2734 73.7266 38.2734 73.681 38.2684L67.124 37.5747C66.4557 37.5038 65.9747 36.9064 66.0456 36.238C66.1164 35.5696 66.7139 35.0886 67.3823 35.1595L73.9392 35.8532C74.6076 35.9241 75.0886 36.5215 75.0177 37.1899C74.957 37.8076 74.4304 38.2734 73.8127 38.2734Z" fill="#333333"/>
</svg>
