<svg width="80" height="80" viewBox="0 0 80 80" fill="none" xmlns="http://www.w3.org/2000/svg">
<path fill-rule="evenodd" clip-rule="evenodd" d="M56.8609 45.4935H23.1168V62.3677C23.1168 71.6481 30.7062 79.2376 39.9867 79.2376C49.2671 79.2376 56.8609 71.6482 56.8609 62.3677V45.4935Z" fill="#D9B1EE"/>
<path fill-rule="evenodd" clip-rule="evenodd" d="M25.8012 45.4935H23.1168V62.3677C23.1168 71.6481 30.7062 79.2376 39.9867 79.2376C42.4149 79.2376 44.724 78.721 46.8167 77.7851C45.4878 78.1251 44.1014 78.306 42.6754 78.306C33.3949 78.306 25.8012 70.7121 25.8012 61.4318V45.4935Z" fill="#CB97E7"/>
<path fill-rule="evenodd" clip-rule="evenodd" d="M14.4237 35.37C18.4061 35.37 21.66 32.1204 21.66 28.1337C21.66 24.1514 18.4061 20.9019 14.4237 20.9019C10.4369 20.9019 7.1875 24.1514 7.1875 28.1337C7.1875 32.1204 10.4369 35.37 14.4237 35.37Z" fill="#FFB09E"/>
<path fill-rule="evenodd" clip-rule="evenodd" d="M65.5542 35.37C69.5366 35.37 72.7905 32.1204 72.7905 28.1337C72.7905 24.1514 69.5366 20.9019 65.5542 20.9019C61.5675 20.9019 58.318 24.1514 58.318 28.1337C58.318 32.1204 61.5674 35.37 65.5542 35.37Z" fill="#FFB09E"/>
<path fill-rule="evenodd" clip-rule="evenodd" d="M56.861 45.4935H54.9846L35.0022 59.8335C33.9338 60.5973 33.3553 61.7276 33.3553 63.0388C33.3553 64.3501 33.9338 65.4804 35.0022 66.2485L49.2363 76.4606C53.8191 73.4362 56.861 68.2398 56.861 62.3677V45.4935Z" fill="#B87AD9"/>
<path fill-rule="evenodd" clip-rule="evenodd" d="M39.9868 54.2398C54.4637 54.2398 66.2694 42.434 66.2694 27.9571C66.2694 13.4803 54.4637 1.67432 39.9868 1.67432C25.5143 1.67432 13.7085 13.4801 13.7085 27.957C13.7085 42.4338 25.5143 54.2398 39.9868 54.2398Z" fill="#FFCEBF"/>
<path fill-rule="evenodd" clip-rule="evenodd" d="M61.4394 52.3634L72.8126 57.03V67.3523C71.1657 73.6173 67.0244 77.2023 61.4394 79.2376C55.8588 77.2023 51.7176 73.6173 50.0707 67.3523V57.03L61.4394 52.3634Z" fill="#99E6FC"/>
<path fill-rule="evenodd" clip-rule="evenodd" d="M59.3467 59.3567H63.5365V63.7056H67.8853V67.8954H63.5365V72.2487H59.3467V67.8954H54.9934V63.7056H59.3467V59.3567Z" fill="#01D0FB"/>
<path fill-rule="evenodd" clip-rule="evenodd" d="M24.2913 45.4935C21.2758 42.4824 18.9535 38.7827 17.576 34.6502C16.6577 31.8952 16.1588 28.946 16.1588 25.882C16.1588 24.2926 16.2913 22.734 16.5518 21.2196C17.3465 16.5088 19.3332 12.2041 22.1897 8.61914C18.6401 11.8907 15.991 16.1202 14.6621 20.9018C14.0396 23.1491 13.7085 25.5155 13.7085 27.957C13.7085 30.5265 14.0749 33.0121 14.7637 35.361C16.2427 40.4029 19.1919 44.818 23.1169 48.1073C27.6821 51.9351 33.5629 54.2398 39.9868 54.2398C41.0199 54.2398 42.0397 54.1779 43.0419 54.0632C44.106 53.9396 45.1479 53.7541 46.1722 53.507C45.4129 53.5687 44.6491 53.5996 43.8808 53.5996C43.8146 53.5996 43.7529 53.5996 43.6866 53.5996C36.1149 53.5465 29.2627 50.4604 24.2913 45.4935Z" fill="#FFC6B5"/>
<path fill-rule="evenodd" clip-rule="evenodd" d="M51.7086 66.902V56.3589L50.0707 57.03V67.3523C50.6799 69.6614 51.6247 71.6084 52.8566 73.2464C54.9669 76.05 57.9163 77.9528 61.4394 79.2376C61.7485 79.1273 62.0532 79.0081 62.3533 78.8889C58.7816 77.3701 55.8544 75.1581 53.8501 71.9573C52.9316 70.4915 52.2076 68.8137 51.7086 66.902Z" fill="#62DBFB"/>
<path d="M40.0354 62.4118C40.0354 63.4606 39.1822 64.314 38.1334 64.314C37.0872 64.314 36.2358 63.4606 36.2358 62.4118C36.2358 61.3631 37.087 60.5096 38.1334 60.5096C39.1822 60.5096 40.0354 61.3631 40.0354 62.4118ZM42.6959 31.0167C42.1237 31.7089 41.1894 32.5339 39.9865 32.5339C38.7876 32.5339 37.8539 31.7089 37.2819 31.0167C36.8956 30.5492 36.2037 30.4837 35.7364 30.87C35.269 31.2562 35.2034 31.9481 35.5897 32.4154C36.8409 33.9292 38.3614 34.7293 39.9865 34.7293C41.5915 34.7293 43.1547 33.9075 44.3879 32.4154C44.7742 31.9481 44.7086 31.2562 44.2412 30.87C43.7742 30.4839 43.0822 30.5495 42.6959 31.0167ZM27.6851 23.1654C25.8031 23.1654 24.272 24.6967 24.272 26.5786C24.272 27.1848 24.7634 27.6764 25.3697 27.6764C25.9759 27.6764 26.4673 27.185 26.4673 26.5786C26.4673 25.907 27.0136 25.3609 27.685 25.3609C28.3564 25.3609 28.9026 25.907 28.9026 26.5786C28.9026 27.1848 29.394 27.6764 30.0003 27.6764C30.6065 27.6764 31.0979 27.185 31.0979 26.5786C31.0983 24.6967 29.5672 23.1654 27.6851 23.1654ZM51.0748 26.5786C51.0748 25.907 51.6211 25.3609 52.2925 25.3609C52.9639 25.3609 53.5101 25.907 53.5101 26.5786C53.5101 27.1848 54.0015 27.6764 54.6078 27.6764C55.214 27.6764 55.7054 27.185 55.7054 26.5786C55.7054 24.6965 54.1744 23.1654 52.2923 23.1654C50.4103 23.1654 48.8792 24.6967 48.8792 26.5786C48.8792 27.1848 49.3706 27.6764 49.9768 27.6764C50.5833 27.6764 51.0748 27.185 51.0748 26.5786ZM74.1265 56.4654V66.8559C74.1265 66.9501 74.1145 67.0439 74.0904 67.135C72.4687 73.3046 68.4998 77.4654 61.9573 79.855C61.8358 79.8995 61.7083 79.9217 61.5808 79.9217C61.4531 79.9217 61.3256 79.8993 61.2039 79.855C57.7112 78.5782 54.9529 76.7962 52.8933 74.4734C49.4936 77.9501 44.8601 79.9217 39.9865 79.9217C30.0154 79.9217 21.9034 71.8093 21.9034 61.8382V47.9703C18.1962 44.7373 15.3606 40.53 13.7972 35.7517C9.38763 35.5131 5.87341 31.8509 5.87341 27.3829C5.87341 22.96 9.31763 19.3286 13.6647 19.0243C14.5876 16.0451 16.0222 13.2325 17.9373 10.6796C21.4165 6.0423 26.369 2.5548 31.8825 0.859801C36.0417 -0.41598 40.3142 0.145426 43.3119 2.36152C45.9134 4.28464 47.3462 7.30918 47.3462 10.8775C47.3462 16.5104 42.4995 20.0357 37.8137 20.1896C33.6187 20.3243 30.627 17.8125 30.3719 13.9314C30.2661 12.3178 30.8373 10.7571 31.9803 9.53683C33.2112 8.22277 34.9534 7.46886 36.7603 7.46886C38.6445 7.46886 40.4256 8.29746 41.6472 9.74214C42.0386 10.2051 41.9806 10.8976 41.5176 11.2892C41.0548 11.6804 40.3622 11.6225 39.9706 11.1596C39.1672 10.2093 37.997 9.66449 36.7603 9.66449C35.5583 9.66449 34.4001 10.165 33.5826 11.0378C32.8594 11.81 32.497 12.7867 32.5626 13.7878C32.7744 17.0086 35.3761 18.0726 37.7415 17.9954C41.3836 17.8759 45.1509 15.1807 45.1509 10.8776C45.1509 7.98199 44.0637 5.64777 42.0069 4.12699C39.5667 2.32308 36.0229 1.88636 32.527 2.95871C21.824 6.24902 14.6328 15.9912 14.6328 27.2009C14.6328 41.1836 26.0065 52.559 39.9867 52.559C53.9693 52.559 65.345 41.1834 65.345 27.2009C65.345 14.9387 56.6031 4.44777 44.5587 2.25589C43.9622 2.1473 43.5667 1.57574 43.6753 0.979332C43.7837 0.383082 44.3556 -0.0120741 44.9517 0.0958946C55.2545 1.97089 63.3323 9.43371 66.3048 19.0239C70.6556 19.3242 74.1044 22.9573 74.1044 27.3831C74.1044 31.8512 70.59 35.5134 66.1803 35.7518C64.6162 40.5314 61.779 44.7396 58.0698 47.9729V52.0226L61.1639 50.7525C61.4309 50.6428 61.7304 50.6428 61.9973 50.7525L73.4454 55.45C73.8576 55.619 74.1265 56.0201 74.1265 56.4654ZM66.9073 21.3118C67.3215 23.2146 67.5403 25.1854 67.5403 27.2007C67.5403 29.3565 67.2908 31.4551 66.8203 33.4696C69.7094 32.95 71.9089 30.4193 71.9089 27.3829C71.9089 24.377 69.7536 21.8662 66.9073 21.3118ZM13.1572 33.4696C12.6867 31.4551 12.4373 29.3565 12.4373 27.2007C12.4373 25.1971 12.6497 23.227 13.0645 21.3128C10.2212 21.8693 8.06873 24.3789 8.06873 27.3829C8.06873 30.4195 10.2683 32.95 13.1572 33.4696ZM39.9865 77.7264C42.5601 77.7264 45.0576 77.099 47.2901 75.9354L34.3292 66.6368C32.9656 65.662 32.2137 64.199 32.2137 62.5185C32.2137 60.8409 32.9647 59.3768 34.3283 58.3964L39.4151 54.7473C33.7212 54.6307 28.4462 52.7789 24.0987 49.6986V61.8384C24.0987 70.5992 31.2261 77.7264 39.9865 77.7264ZM51.5378 72.7171C50.4428 71.0801 49.6242 69.2231 49.0754 67.1351C49.0515 67.044 49.0393 66.9501 49.0393 66.856V56.4656C49.0393 56.0204 49.3083 55.6192 49.7203 55.4501L55.8745 52.924V49.7006C52.2804 52.2459 48.0529 53.9532 43.4789 54.5345L35.609 60.1798C34.8245 60.7439 34.4092 61.5529 34.4092 62.5189C34.4092 63.485 34.8236 64.2918 35.6075 64.8523L49.3098 74.6828C50.1053 74.1025 50.8519 73.4459 51.5378 72.7171ZM71.9312 57.2017L61.5809 52.9546L51.2348 57.2015V66.7121C52.6511 71.9423 56.0387 75.5254 61.5809 77.6521C67.1256 75.5261 70.5148 71.9429 71.9312 66.7121V57.2017ZM59.4742 57.7098H63.6917C64.2979 57.7098 64.7894 58.2012 64.7894 58.8076V62.0875H68.0692C68.6754 62.0875 69.1669 62.5789 69.1669 63.1853V67.4071C69.1669 68.0134 68.6754 68.505 68.0692 68.505H64.7894V71.7846C64.7894 72.3909 64.2979 72.8825 63.6917 72.8825H59.4742C58.8679 72.8825 58.3765 72.3911 58.3765 71.7846V68.505H55.0923C54.4861 68.505 53.9947 68.0135 53.9947 67.4071V63.1853C53.9947 62.579 54.4861 62.0875 55.0923 62.0875H58.3765V58.8076C58.3765 58.2012 58.8679 57.7098 59.4742 57.7098ZM59.4742 64.2829H56.19V66.3093H59.4742C60.0804 66.3093 60.5719 66.8007 60.5719 67.4071V70.6868H62.594V67.4071C62.594 66.8009 63.0854 66.3093 63.6917 66.3093H66.9715V64.2829H63.6917C63.0854 64.2829 62.594 63.7915 62.594 63.1851V59.9053H60.5719V63.1851C60.5719 63.7914 60.0804 64.2829 59.4742 64.2829Z" fill="black"/>
</svg>
