<svg width="35" height="35" viewBox="0 0 35 35" fill="none" xmlns="http://www.w3.org/2000/svg">
<path d="M9.48062 2.55078C5.66124 2.55078 2.55499 5.65703 2.55499 9.47641C2.55499 13.2958 5.66124 16.402 9.48062 16.402H13.37C13.8819 16.402 14.1925 16.402 14.5162 16.3145C15.3956 16.0783 16.0869 15.387 16.3187 14.512C16.4062 14.1883 16.4062 13.8777 16.4062 13.3658V9.47641C16.4062 5.66141 13.3 2.55078 9.48062 2.55078ZM14.2187 13.3702C14.2187 13.6195 14.2187 13.882 14.2056 13.952C14.1706 14.0745 14.0744 14.1708 13.9519 14.2058C13.8775 14.2189 13.6194 14.2189 13.37 14.2189H9.48062C6.86874 14.2189 4.74249 12.0927 4.74249 9.48078C4.74249 6.86891 6.86874 4.74266 9.48062 4.74266C12.0925 4.74266 14.2187 6.86891 14.2187 9.48078V13.3702ZM25.5194 18.5939H21.63C21.1181 18.5939 20.8075 18.5939 20.4837 18.6814C19.6044 18.9177 18.9131 19.6089 18.6769 20.4839C18.5894 20.8077 18.5894 21.1183 18.5894 21.6302V25.5195C18.5894 29.3389 21.6956 32.4452 25.515 32.4452C29.3344 32.4452 32.4406 29.3389 32.4406 25.5195C32.4406 21.7002 29.3387 18.5939 25.5194 18.5939ZM25.5194 30.262C22.9075 30.262 20.7812 28.1358 20.7812 25.5239V21.6345C20.7812 21.3808 20.7812 21.1227 20.7944 21.0527C20.8294 20.9302 20.9256 20.8339 21.0481 20.7989C21.1181 20.7858 21.3806 20.7858 21.63 20.7858H25.5194C28.1312 20.7858 30.2575 22.912 30.2575 25.5239C30.2575 28.1358 28.1356 30.262 25.5194 30.262ZM15.015 18.8739C14.4681 18.5939 13.9081 18.5939 12.9806 18.5939H9.48062C5.66124 18.5939 2.55499 21.7002 2.55499 25.5195C2.55499 29.3389 5.66124 32.4452 9.48062 32.4452C13.3 32.4452 16.4062 29.3389 16.4062 25.5195V22.0195C16.4062 21.092 16.4062 20.532 16.1262 19.9852C15.8812 19.5039 15.4962 19.1189 15.015 18.8739ZM14.2187 25.5195C14.2187 28.1314 12.0925 30.2577 9.48062 30.2577C6.86874 30.2577 4.74249 28.1314 4.74249 25.5195C4.74249 22.9077 6.86437 20.7814 9.48062 20.7814H12.9806C13.4356 20.7814 13.9037 20.7814 14.0262 20.8252C14.0919 20.8602 14.1444 20.9127 14.1794 20.9783C14.2231 21.0964 14.2231 21.5689 14.2231 22.0239V25.5195H14.2187ZM20.86 16.3889C21.0044 16.4064 21.1269 16.4064 21.3544 16.4064H25.5194C29.3387 16.4064 32.445 13.3002 32.445 9.48078C32.445 5.66141 29.3387 2.55516 25.5194 2.55516C21.7 2.55516 18.5937 5.66141 18.5937 9.48078V13.6458C18.5937 13.8733 18.5937 13.9958 18.6112 14.1402C18.7425 15.3302 19.67 16.2577 20.86 16.3889ZM20.7812 9.48078C20.7812 6.86891 22.9075 4.74266 25.5194 4.74266C28.1312 4.74266 30.2575 6.86891 30.2575 9.48078C30.2575 12.0927 28.1312 14.2189 25.5194 14.2189H21.3544C21.2406 14.2189 21.1312 14.2189 21.105 14.2145C20.9344 14.197 20.8031 14.0614 20.7856 13.8952C20.7812 13.8645 20.7812 13.7595 20.7812 13.6414V9.48078Z" fill="#0098DB"/>
</svg>
