<svg width="35" height="35" viewBox="0 0 35 35" fill="none" xmlns="http://www.w3.org/2000/svg">
<g clip-path="url(#clip0_47_2)">
<path d="M33.1388 9.19158L17.8263 1.53533C17.621 1.43288 17.379 1.43288 17.1741 1.53533L1.86156 9.19158C1.61437 9.31518 1.45833 9.56747 1.45833 9.84382V25.1563C1.45833 25.4327 1.61437 25.685 1.86119 25.8086L17.1737 33.4648C17.2765 33.5162 17.3881 33.5417 17.5 33.5417C17.6119 33.5417 17.7235 33.5162 17.8263 33.4648L33.1388 25.8086C33.3856 25.685 33.5417 25.4327 33.5417 25.1563V9.84382C33.5417 9.56747 33.3856 9.31518 33.1388 9.19158ZM17.5 3.00278L31.1821 9.84382L28.2552 11.3073L14.5735 4.46622L17.5 3.00278ZM22.4219 14.2239L8.73979 7.38288L12.9427 5.28143L26.6248 12.1225L22.4219 14.2239ZM22.9687 15.5809L27.3437 13.3934V18.8173L25.9445 17.818C25.7859 17.7046 25.5875 17.6598 25.3954 17.6929C25.2033 17.7268 25.0323 17.8359 24.9211 17.9963L22.9687 20.817V15.5809ZM7.10937 8.19809L20.7911 15.0391L17.5 16.6849L3.81791 9.84382L7.10937 8.19809ZM2.91666 11.0236L16.7708 17.9507V31.6324L2.91666 24.7053V11.0236ZM18.2292 31.6328V17.9507L21.5104 16.3101V23.1511C21.5104 23.4701 21.7175 23.7519 22.0219 23.8471C22.0941 23.8697 22.167 23.8803 22.2396 23.8803C22.4744 23.8803 22.7004 23.7665 22.8393 23.5664L25.6995 19.4353L27.6496 20.828C27.872 20.9866 28.1644 21.0081 28.4069 20.8827C28.6493 20.758 28.8021 20.5075 28.8021 20.2344V12.6642L32.0833 11.0236V24.7053L18.2292 31.6328Z" fill="#0098DB"/>
</g>
<defs>
<clipPath id="clip0_47_2">
<rect width="35" height="35" fill="white"/>
</clipPath>
</defs>
</svg>
