<svg width="16" height="16" viewBox="0 0 16 16" fill="none" xmlns="http://www.w3.org/2000/svg">
<path d="M6.55 8.88984C6.05 8.88984 5.55 8.88984 5.05 8.88984C4.95 8.88984 4.875 8.86484 4.825 8.81484C4.775 8.76484 4.75 8.67318 4.75 8.53984V6.73984C4.75 6.60651 4.775 6.52318 4.825 6.48984C4.875 6.45651 4.95 6.43984 5.05 6.43984H6.55V5.08984C6.55 4.45651 6.69167 3.88984 6.975 3.38984C7.25833 2.88984 7.7 2.52318 8.3 2.28984C8.66667 2.15651 9.05 2.08984 9.45 2.08984H10.95C11.15 2.08984 11.25 2.18984 11.25 2.38984V4.08984C11.25 4.28984 11.1333 4.40651 10.9 4.43984H9.7C9.3 4.43984 9.1 4.63984 9.1 5.03984V6.38984H10.85C10.95 6.38984 11.025 6.41484 11.075 6.46484C11.125 6.51484 11.15 6.60651 11.15 6.73984V8.53984C11.15 8.67318 11.1333 8.75651 11.1 8.78984C11.0667 8.82318 10.9833 8.83984 10.85 8.83984H9.1V13.7398C9.1 13.8732 9.075 13.9648 9.025 14.0148C8.975 14.0648 8.88333 14.0898 8.75 14.0898H6.85C6.65 14.0898 6.55 13.9898 6.55 13.7898V8.88984Z" fill="black"/>
</svg>
