<svg width="16" height="16" viewBox="0 0 16 16" fill="none" xmlns="http://www.w3.org/2000/svg">
<path d="M15.03 15.5898V10.0898C15.03 9.08984 14.9467 8.27318 14.78 7.63984C14.5467 6.90651 14.18 6.33984 13.68 5.93984C13.08 5.53984 12.28 5.33984 11.28 5.33984C10.58 5.33984 9.96333 5.50651 9.43 5.83984C8.96333 6.13984 8.61333 6.50651 8.38 6.93984H8.33V5.58984H5.33V15.5898H8.43V10.6398C8.43 9.83984 8.54667 9.23984 8.78 8.83984C9.08 8.30651 9.58833 8.03984 10.305 8.03984C11.0217 8.03984 11.4967 8.33984 11.73 8.93984C11.8633 9.30651 11.93 9.88984 11.93 10.6898V15.5898H15.03ZM0.279999 5.58984H3.38V15.5898H0.279999V5.58984ZM1.83 0.589844C1.33 0.589844 0.904999 0.764844 0.554999 1.11484C0.204999 1.46484 0.0299988 1.88984 0.0299988 2.38984C0.0299988 2.88984 0.204999 3.31484 0.554999 3.66484C0.904999 4.01484 1.33 4.18984 1.83 4.18984C2.33 4.18984 2.755 4.01484 3.105 3.66484C3.455 3.31484 3.63 2.88984 3.63 2.38984C3.63 1.88984 3.455 1.46484 3.105 1.11484C2.755 0.764844 2.33 0.589844 1.83 0.589844Z" fill="black"/>
</svg>
