<svg width="25" height="26" viewBox="0 0 25 26" fill="none" xmlns="http://www.w3.org/2000/svg">
<path d="M12.5 0.360352C11.0556 0.360352 9.72222 0.721462 8.5 1.44368C7.27778 2.16591 6.29167 3.13813 5.54167 4.36035C4.79167 5.58257 4.41667 6.94368 4.41667 8.44368C4.41667 10.1104 4.91667 11.6659 5.91667 13.1104L11.9167 22.3604C12.0278 22.5826 12.2222 22.6937 12.5 22.6937C12.7778 22.6937 12.9722 22.5826 13.0833 22.3604L19.0833 13.1104C20.0833 11.6659 20.5833 10.1104 20.5833 8.44368C20.5833 6.94368 20.2222 5.58257 19.5 4.36035C18.7778 3.13813 17.7917 2.16591 16.5417 1.44368C15.2917 0.721462 13.9444 0.360352 12.5 0.360352ZM12.5 12.1104C11.5 12.1104 10.6389 11.7492 9.91667 11.027C9.19444 10.3048 8.83333 9.44368 8.83333 8.44368C8.83333 7.44368 9.19444 6.58257 9.91667 5.86035C10.6389 5.13813 11.5 4.77702 12.5 4.77702C13.5 4.77702 14.3611 5.13813 15.0833 5.86035C15.8056 6.58257 16.1667 7.44368 16.1667 8.44368C16.1667 9.44368 15.8056 10.3048 15.0833 11.027C14.3611 11.7492 13.5 12.1104 12.5 12.1104ZM18.25 17.1937L14.5 22.9437C14.2222 23.4437 13.8194 23.777 13.2917 23.9437C12.7639 24.1104 12.2361 24.1104 11.7083 23.9437C11.1806 23.777 10.7778 23.4437 10.5 22.9437L6.75 17.1937C5.13889 17.5826 3.86111 18.1104 2.91667 18.777C1.97222 19.4437 1.5 20.2076 1.5 21.0687C1.5 21.9298 2.02778 22.6937 3.08333 23.3604C4.13889 24.027 5.51389 24.527 7.20833 24.8604C8.90278 25.1937 10.6667 25.3604 12.5 25.3604C14.3333 25.3604 16.0972 25.1937 17.7917 24.8604C19.4861 24.527 20.8611 24.027 21.9167 23.3604C22.9722 22.6937 23.5 21.9298 23.5 21.0687C23.5 20.2076 23.0278 19.4437 22.0833 18.777C21.1389 18.1104 19.8611 17.5826 18.25 17.1937Z" fill="#0098DB"/>
</svg>
