<svg width="25" height="26" viewBox="0 0 25 26" fill="none" xmlns="http://www.w3.org/2000/svg">
<path d="M17.75 4.3265H5.25005C4.8056 4.27094 4.37505 4.31261 3.95838 4.4515C3.54171 4.59039 3.1806 4.81261 2.87505 5.11816C2.56949 5.42372 2.34727 5.78483 2.20838 6.2015C2.06949 6.61816 2.02782 7.02094 2.08338 7.40983V16.8265C2.02782 17.2709 2.06949 17.7015 2.20838 18.1182C2.34727 18.5348 2.56949 18.8959 2.87505 19.2015C3.1806 19.5071 3.54171 19.7293 3.95838 19.8682C4.37505 20.0071 4.77782 20.0487 5.16671 19.9932H12.75C12.8056 19.9932 12.8612 19.9515 12.9167 19.8682C12.9723 19.7848 13 19.7154 13 19.6598C13 19.2709 13.1667 18.9098 13.5 18.5765L19.1667 12.8265C19.5556 12.4932 20.0278 12.2709 20.5834 12.1598C20.75 12.1598 20.8334 12.0765 20.8334 11.9098V7.40983C20.8889 7.02094 20.8473 6.61816 20.7084 6.2015C20.5695 5.78483 20.3473 5.42372 20.0417 5.11816C19.7362 4.81261 19.375 4.59039 18.9584 4.4515C18.5417 4.31261 18.1112 4.27094 17.6667 4.3265H17.75ZM17.6667 9.15983L12.5 12.8265C12.2223 13.0487 11.875 13.1598 11.4584 13.1598C11.0417 13.1598 10.6945 13.0487 10.4167 12.8265L5.25005 9.15983C5.08338 8.99316 4.98616 8.81261 4.95838 8.61816C4.9306 8.42372 4.97227 8.22927 5.08338 8.03483C5.19449 7.84039 5.36116 7.72927 5.58338 7.7015C5.8056 7.67372 6.00005 7.71539 6.16671 7.8265L11.3334 11.5765C11.3889 11.6321 11.4723 11.6321 11.5834 11.5765L16.75 7.8265C16.9167 7.71539 17.1112 7.67372 17.3334 7.7015C17.5556 7.72927 17.7223 7.84039 17.8334 8.03483C17.9445 8.22927 17.9862 8.42372 17.9584 8.61816C17.9306 8.81261 17.8334 8.99316 17.6667 9.15983ZM18.75 15.5765L21.0834 17.9098L16.9167 21.9932H14.5834V19.7432L18.75 15.5765ZM22.6667 14.9932L21.5834 13.9932C21.4167 13.7709 21.2084 13.6598 20.9584 13.6598C20.7084 13.6598 20.5 13.7709 20.3334 13.9932L19.4167 14.8265L21.75 17.1598L22.6667 16.3265C22.8334 16.1598 22.9167 15.9376 22.9167 15.6598C22.9167 15.3821 22.8334 15.1598 22.6667 14.9932Z" fill="#0098DB"/>
</svg>
