<svg width="35" height="35" viewBox="0 0 35 35" fill="none" xmlns="http://www.w3.org/2000/svg">
<g clip-path="url(#clip0_44_116)">
<path d="M0.129684 11.6162C0.328162 12.0063 0.729357 12.2514 1.16703 12.2499H4.08369V13.9999C4.08725 14.0303 4.0933 14.0604 4.10178 14.0898C4.28452 18.3642 6.2093 22.3775 9.42825 25.1958L10.8627 26.4493C12.4858 27.8718 13.4167 29.925 13.417 32.0833V33.8333C13.4178 34.4773 13.9397 34.9992 14.5837 34.9999H20.417C21.0611 34.9992 21.583 34.4773 21.5837 33.8333V32.0833C21.5839 29.9253 22.5146 27.8723 24.1375 26.4499L25.5725 25.1957C28.7897 22.3791 30.7143 18.3687 30.8987 14.0967C30.9074 14.0669 30.9135 14.0365 30.917 14.0058V12.2499H33.8337C34.2714 12.2514 34.6726 12.0063 34.871 11.6162C35.0693 11.2326 35.0351 10.7702 34.7828 10.4199L27.7606 0.479323C27.5398 0.175894 27.1867 -0.00298049 26.8115 -0.00145517C26.4363 7.01506e-05 26.0847 0.18181 25.8664 0.487023L18.888 10.4148C18.634 10.7685 18.5997 11.2347 18.7992 11.6218C18.9986 12.0089 19.3982 12.2515 19.8337 12.2499H22.7504V13.4166C22.75 15.5745 21.8193 17.6275 20.1966 19.05L18.7599 20.3058C18.3167 20.7006 17.8962 21.12 17.5004 21.5622C17.1039 21.1195 16.6828 20.6994 16.2391 20.3041L14.8047 19.0506C13.1817 17.628 12.2508 15.5748 12.2504 13.4166V12.2499H15.167C15.6047 12.2514 16.0059 12.0063 16.2044 11.6162C16.4026 11.2326 16.3685 10.7702 16.1161 10.4199L9.09388 0.479323C8.87315 0.175894 8.52006 -0.00298049 8.14484 -0.00145517C7.76962 7.01506e-05 7.418 0.18181 7.19974 0.487023L0.221384 10.4148C-0.0335198 10.7658 -0.0689876 11.2305 0.129684 11.6162ZM19.5295 21.1825L20.9651 19.9278C22.6308 18.4653 23.672 16.4195 23.8742 14.2121C23.9017 14.1447 23.9163 14.0727 23.917 13.9999V11.6666C23.917 11.3444 23.6559 11.0833 23.3337 11.0833L19.8382 11.0921L26.8126 1.1592L33.8377 11.0833H30.3337C30.0115 11.0833 29.7504 11.3444 29.7504 11.6666V13.4166C29.7503 17.5933 27.9475 21.5667 24.8046 24.3174L23.369 25.572C22.4336 26.392 21.6857 27.4039 21.1764 28.5388C21.1483 28.4186 21.1134 28.3002 21.0827 28.1807C21.0614 28.0984 21.0407 28.0162 21.0181 27.9343C20.9135 27.5545 20.7965 27.1785 20.6639 26.8081C20.6413 26.7447 20.6155 26.6827 20.592 26.6197C20.4676 26.2863 20.332 25.9574 20.1852 25.6331C20.1556 25.5677 20.1282 25.5015 20.0976 25.4364C19.9321 25.0839 19.752 24.7383 19.5602 24.3986C19.5153 24.3189 19.4685 24.2406 19.4221 24.1617C19.2278 23.8311 19.0245 23.5054 18.8056 23.1891C18.7939 23.1721 18.7832 23.1541 18.7714 23.1372C18.6073 22.9022 18.4365 22.6716 18.2592 22.4451C18.6565 21.9988 19.0808 21.5772 19.5295 21.1825ZM8.14597 1.1592L15.167 11.0833H11.667C11.3449 11.0833 11.0837 11.3444 11.0837 11.6666V14.0058C11.0844 14.0792 11.099 14.1518 11.1269 14.2197C11.331 16.4247 12.3722 18.4676 14.0362 19.9285L15.4695 21.1809C18.6046 23.9383 20.4062 27.9081 20.417 32.0833V33.8333H14.5837V32.0833C14.5832 29.5888 13.5072 27.2156 11.6312 25.5715L10.1962 24.3176C7.05322 21.5668 5.25046 17.5933 5.25036 13.4166V11.6666C5.25036 11.3444 4.98919 11.0833 4.66703 11.0833L1.17158 11.0921L8.14597 1.1592Z" fill="#0098DB"/>
</g>
<defs>
<clipPath id="clip0_44_116">
<rect width="35" height="35" fill="white"/>
</clipPath>
</defs>
</svg>
