<svg width="50" height="50" viewBox="0 0 50 50" fill="none" xmlns="http://www.w3.org/2000/svg">
<rect x="0.00012207" width="50" height="50" rx="25" fill="#0098DB"/>
<path d="M22.2655 29.6637V33.5322C22.2655 33.6656 22.31 33.7879 22.3989 33.8991C22.4878 34.0102 22.599 34.0881 22.7324 34.1325L22.9325 34.1992C23.1104 34.1548 23.266 34.0658 23.3994 33.9324L25.6672 30.8643L22.2655 29.6637ZM34.7382 15.1234C34.5159 14.9455 34.2935 14.9233 34.0712 15.0567L15.3289 24.8614C15.1065 24.9948 14.9954 25.1949 14.9954 25.4617C14.9954 25.7285 15.1288 25.9063 15.3956 25.9953L20.6648 27.7961L31.7367 18.2582L23.1326 28.6632L31.8701 31.598L32.0702 31.6647C32.2036 31.6647 32.337 31.6202 32.4704 31.5313C32.6038 31.4423 32.6928 31.3089 32.7372 31.1311L35.005 15.7237C35.0494 15.4569 34.9605 15.2568 34.7382 15.1234Z" fill="white"/>
</svg>
