<svg width="21" height="21" viewBox="0 0 21 21" fill="none" xmlns="http://www.w3.org/2000/svg">
<path d="M2.45 0.700212C2.96334 0.186878 3.55834 -0.0464535 4.235 0.000211716C4.91167 0.0468788 5.46 0.350212 5.88 0.910212L8.26 3.92021C8.49334 4.20021 8.645 4.51521 8.715 4.86521C8.785 5.21521 8.77334 5.55354 8.68 5.88021L7.98 8.75021C7.88667 9.07688 7.95667 9.35688 8.19 9.59021L11.41 12.8102C11.6433 13.0435 11.9233 13.1135 12.25 13.0202L15.12 12.3202C15.4467 12.2269 15.785 12.2152 16.135 12.2852C16.485 12.3552 16.8 12.5069 17.08 12.7402L20.09 15.1202C20.65 15.5402 20.9533 16.0885 21 16.7652C21.0467 17.4419 20.8133 18.0369 20.3 18.5502L18.97 19.8802C18.4567 20.3935 17.8617 20.7319 17.185 20.8952C16.5083 21.0585 15.8433 21.0235 15.19 20.7902C11.69 19.5769 8.62167 17.6519 5.985 15.0152C3.34834 12.3785 1.42334 9.31021 0.210002 5.81021C-0.0233311 5.15688 -0.0583311 4.49188 0.105002 3.81521C0.268336 3.13854 0.606669 2.54354 1.12 2.03021L2.45 0.700212Z" fill="#0098DB"/>
</svg>
